<svg width="20" height="20" viewBox="0 0 20 20" fill="none" xmlns="http://www.w3.org/2000/svg">
<path d="M17.2344 2.45897C17.5763 2.5546 17.9952 2.76645 18.2774 3.13084C18.151 2.91858 17.9621 2.72476 17.7774 2.58592C18.2048 2.82174 18.5055 3.25553 18.6739 3.69529C18.5074 3.13113 18.5204 3.20885 18.6504 3.43651C18.7732 3.67811 18.8263 4.02729 18.8311 4.03904C18.8449 4.03329 18.8235 3.60602 18.7901 3.5117C19.0307 3.93721 18.9654 5.01926 19.0723 4.38182C19.0581 4.49626 19.0839 4.77013 19.087 4.77928C19.1419 4.74849 19.116 4.11881 19.1465 4.21873C19.1943 4.33779 19.1422 4.5082 19.1329 4.68846C19.0469 5.54206 19.2718 5.35687 19.0079 6.11131C19.0197 6.09849 19.0313 6.08514 19.043 6.07225C18.7606 6.85359 18.4053 7.51924 18.0274 8.16697C17.9384 8.44847 17.5689 9.1208 17.3555 9.43162C17.3148 9.49291 17.0873 9.78106 17.0664 9.80174C17.0297 9.83882 17.1827 9.60328 17.0967 9.69822C17.0797 9.71924 16.7217 10.2225 16.7706 10.2051C16.8127 10.1511 16.9212 9.96467 16.9483 9.93748C17.1374 9.77022 16.0104 11.2933 15.9639 11.374C15.9971 11.3463 16.0303 11.3178 16.0635 11.29C15.9883 11.3832 15.9133 11.4762 15.8379 11.5683C15.8597 11.5248 15.8818 11.4811 15.9034 11.4375C15.8171 11.5437 15.7113 11.6942 15.628 11.79C15.6148 11.8044 15.626 11.7481 15.5957 11.7861C15.5657 11.8241 15.5986 11.837 15.5586 11.8955C15.5138 11.9613 15.2708 12.2381 15.1934 12.3379C14.9059 12.7107 14.623 13.0957 14.3135 13.4531C14.6037 13.0562 14.2715 13.4259 14.1934 13.5381C14.1766 13.5626 14.2271 13.6003 13.9063 13.9629C13.698 14.1975 13.8128 13.9236 13.5166 14.3457C13.8172 14.0832 13.568 14.3743 13.3653 14.6162C13.3282 14.6609 13.0445 14.9787 12.919 15.1279C12.8759 15.1794 12.8337 15.2767 12.7774 15.3428C12.7387 15.3881 12.6962 15.4114 12.6397 15.4775C12.3691 15.7936 12.0987 16.1008 11.8204 16.4023C11.916 16.1768 11.6738 16.5148 11.6504 16.5351C11.5685 16.5941 11.8621 16.257 11.7354 16.3779C11.5629 16.5744 11.4211 16.7351 11.2403 16.9375C11.3811 16.7977 11.1227 17.1634 11.0303 17.2256C11.0723 17.2388 10.8002 17.4966 10.5362 17.7392L9.69438 18.6201L8.92289 17.7265C8.75755 17.5072 8.61634 17.3127 8.56157 17.2627C8.53575 17.2391 8.6608 17.4405 8.31547 17.0039C8.27771 16.9559 8.30756 16.9603 8.2852 16.9365C8.27165 16.9226 8.14282 16.8684 8.0977 16.7578C8.07785 16.713 8.29731 16.9138 7.87797 16.4316C7.98636 16.668 7.3048 15.7842 7.18364 15.6045C7.20166 15.6408 7.22089 15.6786 7.24125 15.7178C7.13013 15.542 7.09374 15.5314 7.06547 15.4941C6.95516 15.3481 6.80752 15.1268 6.70317 14.9971C6.57708 14.8402 6.54616 14.8643 6.4102 14.665C6.43845 14.7154 6.46706 14.7663 6.49516 14.8164C6.39298 14.6822 6.29954 14.5566 6.20121 14.4258C6.46947 14.689 6.1564 14.3641 6.13383 14.3369C6.10278 14.2996 6.16193 14.3411 6.11039 14.2783C6.1049 14.2718 6.09608 14.2941 6.01762 14.1953C5.85618 13.9915 5.90199 14.0102 5.83598 13.9238C5.82981 13.9158 5.83687 13.9546 5.71977 13.8066C5.34634 13.3324 5.73259 13.8024 5.74809 13.8183C5.76803 13.8383 5.70525 13.6347 5.9893 14.0508C5.89393 13.912 5.90819 13.877 5.8975 13.8613C5.88802 13.848 5.70773 13.6175 5.69438 13.6015C5.59716 13.4909 5.65716 13.6073 5.63676 13.5869C5.61749 13.5666 5.43 13.269 5.32719 13.2412C5.27436 13.0672 5.43136 13.2878 5.60844 13.5078C5.64291 13.5329 5.46859 13.2809 5.4561 13.2637C5.21427 12.9386 5.30768 13.1481 5.22954 13.0967C5.18837 13.0692 5.1166 12.9142 5.17192 13.0654C4.9495 12.7702 5.10309 12.9349 5.09184 12.9131C5.07492 12.8808 4.99076 12.7867 4.98149 12.7715C4.96961 12.7509 5.02965 12.8076 4.97954 12.7295C4.97104 12.7165 4.8611 12.6108 4.96489 12.7754C4.81564 12.5634 4.81 12.5929 4.79496 12.4941C4.622 12.4002 4.75928 12.3586 4.7227 12.2988C4.62535 12.1412 4.60242 12.2208 4.59379 12.2168C4.53698 12.1742 4.2566 11.7358 4.17582 11.6347C4.24358 11.649 4.4115 11.9727 4.46586 12.0332C4.6459 12.2344 4.26777 11.7093 4.42875 11.833C4.36839 11.7759 4.30828 11.7188 4.24809 11.6611C4.19401 11.5149 4.32855 11.6801 4.08793 11.3555C4.02322 11.3202 4.25384 11.5879 4.19243 11.5449C4.15602 11.5195 4.02194 11.33 4.01176 11.3291C4.00114 11.3309 4.12908 11.4974 4.09965 11.4805C4.03071 11.4394 3.6231 10.7815 3.96684 11.2588C3.8744 11.1235 3.87928 11.0159 3.78325 10.9082C3.72265 10.8399 3.93586 11.3216 3.51957 10.6621C3.53568 10.6331 3.69815 10.918 3.70512 10.9238C3.71464 10.9305 3.73732 10.8433 3.73442 10.833C3.72186 10.7977 3.25643 10.1493 3.19731 9.98729C3.2006 10.0675 2.87238 9.4749 2.82719 9.41795C2.81448 9.40293 2.83117 9.47747 2.8184 9.46092C2.73987 9.35883 2.59494 9.02865 2.51567 8.88475C2.42722 8.72508 2.42211 8.75492 2.41703 8.74608C2.37925 8.67539 2.4221 8.72442 2.39848 8.68162C2.36221 8.61965 2.12028 8.15609 2.10746 8.13279C2.1033 8.12646 2.1205 8.21145 2.06645 8.11424C2.05726 8.09615 2.08565 8.10061 1.92485 7.79393C1.73689 7.42817 2.01901 8.06689 1.92094 7.92479C1.84045 7.66699 1.81159 7.69295 1.78422 7.62694C1.77543 7.60475 1.72867 7.42302 1.64653 7.23045C1.70823 7.36527 1.77421 7.50219 1.83696 7.62596C1.78586 7.50285 1.66364 7.23797 1.627 7.12694C1.60864 7.07242 1.65003 7.1057 1.60454 6.99119C1.59576 6.96732 1.4939 6.89271 1.6436 7.18651C1.63184 7.21983 1.58614 7.06802 1.55473 7.00389C1.54884 6.99278 1.49941 6.97233 1.48735 6.8701C1.49101 6.84968 1.66468 7.0402 1.38774 6.45701C1.37919 6.4381 1.38667 6.51052 1.37797 6.49217C1.37119 6.47808 1.33095 6.32022 1.32329 6.29783C1.31584 6.27944 1.32389 6.36708 1.3145 6.34471C1.26582 6.22872 1.28563 6.05834 1.34575 6.30369C1.33026 6.21969 1.31677 6.13601 1.30571 6.05369C1.28089 6.15004 1.26333 5.93296 1.24321 5.81639C1.13686 5.0178 1.17282 5.55448 1.14164 5.41893C1.11127 5.1887 1.17961 5.36451 1.17778 4.99119C1.17796 4.97405 1.16135 5.07195 1.15532 5.07615C1.15915 5.06668 1.13091 5.02417 1.18461 4.78904L1.20805 4.70408C1.19164 4.7796 1.18075 4.85256 1.17387 4.91404C1.21005 4.85974 1.29068 4.38641 1.32036 4.3535C1.40849 4.15412 1.44443 4.12102 1.47856 4.06736C1.5178 4.019 1.56161 3.91507 1.80864 3.69236C1.85394 3.65266 1.96538 3.58415 2.07426 3.51951C2.29019 3.40224 2.14766 3.45128 1.93266 3.58494C1.72169 3.71071 1.5073 3.96768 1.49125 3.98143C1.48066 3.98649 1.69124 3.69667 1.98637 3.52733C2.2774 3.35216 2.54253 3.30215 2.56743 3.29588C2.72713 3.26066 2.07928 3.46313 2.21293 3.44725C2.22885 3.44338 2.37491 3.37438 2.59282 3.32225C2.80679 3.27119 3.02452 3.24796 3.26762 3.24608C3.53884 3.24386 3.78158 3.27678 3.87504 3.2949C4.1554 3.35049 4.25745 3.44221 4.27543 3.38084C4.33642 3.45998 4.41281 3.43808 4.44633 3.44822C4.84635 3.58246 4.84358 3.58828 5.16704 3.72654C5.23697 3.75805 5.28701 3.80395 5.31254 3.81346C5.32743 3.81897 5.31022 3.78725 5.38188 3.81736C5.48784 3.85381 6.01716 4.19982 6.04496 4.23924C6.07748 4.27264 5.82134 4.09878 5.85844 4.14451C6.0475 4.26647 6.22379 4.38498 6.40043 4.52049C6.47283 4.57648 6.42875 4.55778 6.46 4.58201C6.47788 4.59417 6.72741 4.77994 6.71879 4.76854C6.70769 4.72959 5.91094 4.15666 6.13188 4.29197C6.17625 4.31713 6.303 4.44387 6.29985 4.3994C7.00959 4.92859 7.6139 5.53602 8.16606 6.17283C7.82882 5.826 7.46399 5.41569 7.07719 5.07029C7.02507 5.02256 6.84548 4.86193 6.85649 4.89451C7.19087 5.18437 7.58433 5.55802 7.85844 5.8701C7.86725 5.88007 7.82331 5.8555 7.85551 5.89354C7.91658 5.96417 8.13513 6.17242 8.16313 6.21483C8.15559 6.21071 8.0413 6.10924 8.06547 6.15428C8.13091 6.27582 8.20425 6.25334 8.27934 6.34178C8.34066 6.41053 8.69018 6.8876 8.79692 6.99412C8.91202 7.1031 8.53486 6.64265 8.57524 6.666C8.84488 6.96728 9.07604 7.30398 9.29887 7.61033C9.30238 7.61474 9.28002 7.56012 9.3311 7.62791C9.42078 7.74765 9.42355 7.7864 9.46391 7.84959C9.49463 7.89718 9.57984 8.02578 9.63286 8.1074C9.73597 7.89952 9.83588 7.71107 9.91996 7.58006C9.81687 7.75989 9.72684 7.93922 9.64164 8.12205C9.65229 8.13868 9.66221 8.15187 9.66801 8.16209C10.0121 7.45302 10.4038 6.76939 10.8457 6.11522C10.9623 5.95115 10.9221 6.05454 11.1065 5.78123C11.0492 5.84613 10.9931 5.91007 10.9366 5.97654C11.0326 5.83788 11.4981 5.24036 11.5762 5.14647C11.5859 5.1339 11.5805 5.10084 11.7022 4.95506C11.811 4.8262 11.8434 4.81784 11.9063 4.75291C11.9593 4.69839 12.0141 4.63295 12.0303 4.61717C12.0427 4.60533 12.0553 4.6075 12.085 4.57908C12.1802 4.48827 12.0849 4.54408 12.2012 4.47459C12.18 4.49803 12.1587 4.52128 12.1377 4.5449C12.2512 4.43408 12.4166 4.29426 12.2569 4.46385C12.2297 4.49325 12.2466 4.46209 12.2256 4.48338C11.4355 5.34144 12.0693 4.66052 12.3536 4.36424C12.4353 4.29744 12.8734 3.89727 12.8946 3.89061C12.9176 3.87748 12.8477 3.94971 12.9571 3.87401C12.9729 3.84986 13.6197 3.38303 13.3965 3.56346C13.3481 3.5981 13.0389 3.82161 12.9698 3.88182C13.1529 3.76732 13.5435 3.44426 13.5977 3.41697C13.796 3.29747 13.2381 3.67798 13.6797 3.40233C14.0259 3.20167 13.6913 3.37396 13.8204 3.28904C13.8916 3.23688 14.3098 3.05624 14.2901 3.03807C14.4327 2.97259 14.3563 3.02252 14.3731 3.01658C14.39 3.00814 14.677 2.887 14.7764 2.86424C14.7878 2.86148 14.7562 2.88653 14.7686 2.88377C14.7926 2.87553 15.0749 2.79206 15.0909 2.78904C15.0981 2.78625 15.0261 2.79154 15.0538 2.78123C15.0858 2.76683 15.3686 2.70947 15.3858 2.70506C15.4068 2.69257 15.0559 2.77074 15.1114 2.7451C15.2733 2.70767 15.5377 2.65479 15.6465 2.63279C15.6198 2.63839 15.4593 2.66087 15.4043 2.6699C15.4229 2.64485 15.6976 2.60861 15.6788 2.62205C15.7179 2.61099 15.6844 2.61242 15.7207 2.60154C15.734 2.59795 15.8373 2.58943 15.8584 2.58494C15.8513 2.58395 15.7519 2.58363 15.7725 2.57811C15.8123 2.56419 16.1391 2.55438 16.167 2.55955C16.2427 2.56473 15.9769 2.57239 15.9532 2.58397C15.9615 2.58476 16.1759 2.59769 16.1807 2.60057C16.1935 2.61508 15.9429 2.60739 15.9717 2.62205C16.0336 2.62269 16.096 2.62469 16.1582 2.62791C15.9187 2.63554 15.4815 2.68036 15.375 2.72166C15.7185 2.65116 16.0881 2.64762 16.0879 2.68553C16.0877 2.70069 15.9391 2.71539 15.9454 2.71971C15.969 2.73132 16.172 2.71211 16.1827 2.71385C16.189 2.71476 16.1924 2.71595 16.1924 2.71678C16.1869 2.72285 15.8965 2.7359 15.8829 2.74315C15.859 2.75128 15.9903 2.7726 15.9903 2.77928C15.9845 2.77961 15.7813 2.79952 15.8506 2.80565C15.9197 2.81016 16.0953 2.80506 16.1075 2.80662C16.1414 2.81039 15.8283 2.83036 15.8204 2.83787C15.8268 2.83943 15.9834 2.8408 15.9883 2.84471C15.9825 2.84841 15.8646 2.86273 15.8184 2.87791C15.7826 2.88909 15.8885 2.88583 15.8711 2.88865C15.8587 2.88784 15.5658 2.92163 15.5528 2.92772C15.5326 2.93296 15.6007 2.9326 15.5918 2.93651C15.5783 2.94174 15.4854 2.9533 15.4981 2.95506C15.5126 2.95236 15.8727 2.94218 15.8692 2.95506C15.8605 2.96801 15.4877 2.97509 15.8428 2.99803C15.8451 2.998 15.9244 2.98752 15.9317 2.98729C15.9846 2.99539 15.7147 3.02845 16.0469 3.00682C15.4321 3.07099 15.9715 3.03252 15.8819 3.06541C15.8476 3.07613 15.6142 3.1089 15.6123 3.11229C15.6368 3.12125 15.711 3.10116 15.7373 3.10447C15.7464 3.10598 15.5449 3.14937 15.5928 3.15135C15.6185 3.15012 15.8392 3.1214 15.8477 3.12303C15.9345 3.12359 15.8305 3.14119 15.8487 3.14549C15.8615 3.14763 15.9944 3.13859 15.9981 3.13963C15.9965 3.14095 15.8263 3.16883 15.7891 3.17967C15.7612 3.1869 15.8674 3.1825 15.8477 3.18651C15.7293 3.20753 15.4759 3.21961 15.7227 3.22361C15.7375 3.2238 15.8265 3.2128 15.8321 3.21287C15.8896 3.21811 15.7209 3.2365 15.6924 3.25096C15.6438 3.2734 15.8818 3.23295 15.6846 3.27049C15.8359 3.26034 15.9166 3.25135 16.0928 3.24119C15.6079 3.2798 15.4495 3.35672 15.9776 3.29588C15.8094 3.30819 15.8304 3.33203 15.7803 3.33787C15.7487 3.33996 15.5048 3.35746 15.6231 3.39061C15.6395 3.39343 15.7803 3.3646 15.7383 3.38377C15.3905 3.43626 15.7316 3.39224 15.7325 3.39549C15.7282 3.40466 14.8936 3.59038 14.7637 3.67772C14.6066 3.74895 14.4823 3.84361 14.4493 3.86131C14.3407 3.91972 14.424 3.85925 14.3975 3.86815C14.367 3.87604 14.0813 4.07639 14.0655 4.08885C14.0105 4.11898 14.0468 4.07902 14.0489 4.0742C13.9694 4.1084 13.59 4.40338 13.4873 4.49217C13.4981 4.495 13.7064 4.32792 13.586 4.44627C13.4498 4.58282 13.412 4.56105 13.4053 4.56151C12.722 5.15825 12.1459 5.89592 11.6475 6.68162C11.6739 6.68223 11.9941 6.16731 12.0079 6.16014C12.0614 6.10427 11.4998 6.95689 11.4366 7.06639C11.4894 6.98799 11.5433 6.90904 11.5987 6.83006C11.5367 6.98612 11.3217 7.2756 11.2198 7.49217C11.1873 7.56077 11.2669 7.43951 11.2676 7.44041C11.2358 7.52257 11.1629 7.63866 11.1973 7.541C11.113 7.73039 11.1101 7.69921 11.0352 7.8408C11.0331 7.84574 11.073 7.79519 11.0215 7.90721C10.9953 7.96222 10.8566 8.24395 10.8467 8.29197C10.8432 8.30996 10.9584 8.1847 10.9288 8.1494C11.1006 7.84847 10.9616 8.04009 11.0225 7.92088C11.0328 7.9026 11.0277 7.95689 11.1768 7.65037C11.1813 7.72806 10.978 8.05759 10.9532 8.12205C10.9012 8.2497 11.1723 7.75484 11.1963 7.64647C11.2028 7.70344 11.2184 7.61355 11.2803 7.50291C11.3488 7.3813 11.3284 7.43843 11.3643 7.37401C11.464 7.19754 11.4032 7.2591 11.5059 7.12303C11.3683 7.23174 11.6447 6.86938 11.7295 6.76854C11.6187 6.9516 11.5122 7.13704 11.4092 7.32615C11.418 7.31736 11.4268 7.3086 11.4356 7.29979C11.4074 7.34853 11.3804 7.39595 11.3526 7.44529C11.3542 7.43584 11.3561 7.42607 11.3575 7.41697C11.2333 7.6855 11.1837 7.73426 11.1709 7.75682C11.0278 8.02398 10.8717 8.34672 10.7452 8.62889C10.7273 8.67006 10.756 8.65178 10.6084 8.95311C10.5607 9.05223 10.584 8.95233 10.5401 9.06444C10.5245 9.22385 10.4917 9.20824 10.4756 9.24803C10.4261 9.37227 10.412 9.44358 10.4063 9.45897C10.3841 9.51997 10.3505 9.60963 10.3291 9.67283L9.89555 10.9482L9.19145 9.77928C9.1431 9.70085 9.07081 9.58855 9.01957 9.51268C9.0189 9.51282 9.05391 9.59264 8.99614 9.49705C8.97496 9.4616 8.82709 9.12493 8.62309 8.87694C8.66637 8.94464 8.71274 9.01857 8.7559 9.08787C8.70564 8.99952 8.29043 8.46118 8.37407 8.60447C8.42897 8.69473 8.60787 8.87128 8.59184 8.91697C8.47719 8.71757 7.68765 7.74576 7.62407 7.67283C7.61802 7.6632 7.68054 7.71619 7.66996 7.70115C7.66086 7.68756 7.47378 7.47574 7.45121 7.44334C7.43969 7.42546 7.52866 7.51472 7.52543 7.50389C7.51993 7.49104 7.29376 7.22881 7.26371 7.22166C7.32915 7.28257 7.48523 7.46798 7.38969 7.38182C7.37741 7.37055 7.32883 7.29962 7.31352 7.28611C7.17325 7.16098 7.54903 7.57177 7.60356 7.63963C7.35964 7.38532 7.01368 6.97046 6.71586 6.70115C6.61056 6.57766 6.90202 6.85472 6.78032 6.71776C6.53625 6.44671 6.68062 6.64263 6.68461 6.6533C6.6077 6.59722 6.42622 6.3231 6.38481 6.36717C6.2892 6.26948 6.32721 6.29254 6.1768 6.17283C6.19315 6.19229 6.20939 6.21185 6.22563 6.23143C6.04461 6.11569 5.75169 5.7772 5.77739 5.78904C5.86107 5.82861 6.02634 5.99696 6.04204 6.00975C6.06534 6.0283 6.17069 6.03204 6.37895 6.29002C6.50817 6.34782 6.00585 5.92931 6.24907 6.10252C6.09898 5.96537 5.4619 5.45147 5.35063 5.41502C5.33826 5.41102 5.36863 5.47658 5.21391 5.35545C5.13968 5.29786 5.33204 5.41602 5.30082 5.38572C5.25333 5.3389 4.84318 5.0711 4.38969 4.90526C3.93706 4.72834 3.46232 4.70144 3.31743 4.71092C3.29875 4.71133 3.30458 4.69817 3.28715 4.69822H3.28618C3.2139 4.69824 3.02653 4.73878 2.95512 4.75486C3.12382 4.73906 2.80296 4.8213 2.79789 4.84666C2.74835 4.87843 2.74251 4.85695 2.7227 4.87108C2.64866 4.89282 2.66493 5.22977 2.65532 5.43846C2.70334 5.41857 2.69746 5.80092 2.76664 5.99412C2.8103 6.13 2.92724 6.32875 2.87602 6.12791C2.96609 6.38244 3.08491 6.62325 3.20219 6.85838C3.22018 6.89433 3.18039 6.85155 3.21196 6.91307C3.21505 6.91873 3.23406 6.91991 3.26274 6.97361C3.50947 7.4252 3.36644 7.22072 3.40141 7.31151C3.42186 7.36233 3.43814 7.39673 3.45121 7.42283C3.30137 7.15613 3.1471 6.85515 3.10746 6.76951C3.10248 6.85435 3.41168 7.36669 3.48637 7.51463C3.48893 7.52003 3.46112 7.51219 3.46391 7.51756C3.49165 7.57411 3.70817 7.93712 3.68657 7.84959C3.67979 7.82492 3.58079 7.65503 3.4727 7.4619C3.50518 7.51155 3.50404 7.46306 3.50981 7.47069C3.57968 7.57595 3.72616 7.87636 3.77934 7.97069C3.7918 7.99302 3.80333 7.98494 3.80571 7.98826C3.85569 8.07863 3.79765 8.06332 3.89067 8.13279C3.942 8.32119 3.70274 7.835 3.69438 7.88572C3.67903 7.9263 4.32774 8.94164 4.37211 8.92088C4.37077 8.92707 4.37608 8.94428 4.38969 8.97654C4.41871 9.04748 4.60998 9.32634 4.65043 9.37108C4.65769 9.37782 4.69012 9.35239 4.69731 9.36229C4.71726 9.39129 4.92418 9.74909 5.03422 9.86131C4.99071 9.78929 4.94707 9.71723 4.90434 9.64549C5.19427 10.0594 5.16218 9.98809 5.07426 9.84276C5.06953 9.83582 5.06604 9.82792 5.06157 9.82127C4.99372 9.70904 4.90591 9.56734 4.90727 9.56346C4.91539 9.55693 5.41348 10.2462 5.28618 10.1338C5.26537 10.1141 5.05193 9.78446 5.14262 9.95994C5.15847 9.99108 5.31517 10.1958 5.32036 10.208C5.35452 10.2918 5.00722 9.85287 5.02348 9.92479C5.1244 10.0201 5.21509 10.1716 5.31157 10.293C5.35534 10.3479 5.38314 10.3497 5.38871 10.3564C5.47006 10.4589 5.40848 10.4132 5.43461 10.4482C5.45009 10.4685 5.63958 10.6473 5.55766 10.6465C6.10435 11.3005 5.7347 10.8077 5.42485 10.3887C5.54079 10.5078 5.72405 10.7751 5.81547 10.8877C5.84811 10.9278 5.84729 10.8907 5.90336 10.958C6.01773 11.0977 6.52406 11.7985 6.6602 11.9795C6.56795 11.8747 6.57313 11.9213 6.64067 12.0049C6.70795 12.0879 6.67926 11.9987 6.69438 12.0117C6.71175 12.0286 7.00797 12.4278 7.06547 12.4922C6.82079 12.2046 6.85304 12.2855 7.0518 12.539C7.01704 12.507 6.98138 12.4737 6.94731 12.4424C7.07347 12.5852 7.29211 12.9166 7.36821 12.9922C7.38017 13.004 7.35886 12.9452 7.36528 12.9512C7.43093 13.0182 7.62336 13.2881 7.63774 13.2939C7.65051 13.3 7.57681 13.1815 7.61625 13.2158C7.62452 13.223 7.68658 13.3449 7.77446 13.4404C7.80699 13.4757 7.80492 13.4406 7.81352 13.4492C7.88475 13.5202 7.82025 13.496 7.94536 13.6387C8.03715 13.743 8.12966 13.801 8.24028 13.9502C7.87899 13.4513 8.1947 13.8583 8.37407 14.0508C8.40264 14.0812 8.41002 14.0323 8.55668 14.2334C8.16098 13.8696 8.62572 14.3721 8.71391 14.4756C8.71884 14.4817 8.70188 14.5 8.74711 14.5537C8.75095 14.558 8.75903 14.5408 8.8018 14.5888C9.20075 15.0349 8.93617 14.7571 8.99711 14.8535C9.02174 14.893 9.23981 15.1088 9.28813 15.1631C9.29966 15.1762 9.28175 15.1814 9.32621 15.2314C9.40761 15.3229 9.50157 15.4028 9.55473 15.4609C9.56053 15.4674 9.54205 15.4881 9.64555 15.5918C9.67702 15.6237 9.71977 15.6579 9.68168 15.6025C9.57327 15.4404 9.2757 15.1684 9.14457 14.9765C9.02648 14.8044 9.45545 15.2944 9.48832 15.331C9.49549 15.3394 9.39784 15.2493 9.48539 15.3535C9.54213 15.4209 9.64735 15.5003 9.74321 15.5947C9.82782 15.5383 9.92246 15.4751 9.96293 15.4238C10.028 15.342 9.97334 15.3366 9.97758 15.3281C9.98508 15.3151 10.074 15.2169 10.0997 15.1767C10.1292 15.1302 10.0981 15.1391 10.1495 15.0674C10.262 14.9066 10.2962 14.938 10.3116 14.9248C10.4965 14.7591 10.3769 14.7967 10.4082 14.751C10.4455 14.7 10.9152 14.1746 10.9942 14.0498C10.9632 14.1027 10.9337 14.1529 10.9014 14.207C10.9928 14.1424 11.0271 14.0245 11.0694 14.0566C11.0175 13.9851 11.2027 13.8477 11.2452 13.792C11.2616 13.7703 11.2495 13.7623 11.2706 13.7353C11.3539 13.6286 11.5401 13.4146 11.5801 13.3525C11.7443 13.0954 11.2222 13.663 11.1758 13.7138C11.2585 13.6146 11.6717 13.0654 11.4414 13.2871C11.4056 13.3218 11.3813 13.4151 11.3653 13.4375C11.2572 13.5882 11.3213 13.4527 11.3096 13.4619C11.2895 13.479 11.2408 13.5917 11.2159 13.6162C11.2081 13.6235 11.2287 13.5495 11.1133 13.6914C11.1519 13.5962 11.476 13.2296 11.5147 13.1689C11.5256 13.1501 11.3878 13.2209 11.7022 12.9248C11.6947 12.9248 11.6872 12.9248 11.6797 12.9248C11.8231 12.7386 11.9716 12.5428 12.1153 12.3525C12.1107 12.3817 12.0522 12.5048 12.1495 12.3691C12.2056 12.2907 12.1372 12.3267 12.1416 12.3193C12.1896 12.2495 13.1309 11.0174 13.2969 10.7724C13.3559 10.6894 13.5 10.4435 13.5118 10.4258C13.5849 10.3195 13.8592 9.9569 13.9073 9.87986C13.9375 9.83181 13.8853 9.86026 13.9151 9.81932C13.9426 9.78174 13.9365 9.83699 13.9454 9.82615C14.0216 9.73665 14.48 8.99037 14.6104 8.83006C14.5376 8.93188 14.231 9.49111 14.253 9.49022C14.2614 9.48385 14.3592 9.37296 14.3682 9.34178C14.4164 9.31182 14.4586 9.11976 14.5235 9.04588C14.5308 9.03752 14.5402 9.09624 14.6416 8.95408C14.6768 8.90475 14.7357 8.75764 14.8497 8.64354C14.9673 8.43963 15.6198 7.44549 15.6133 7.35154C15.6094 7.3531 15.5181 7.48656 15.5577 7.37986C15.6104 7.23569 15.6143 7.39408 15.7051 7.24412C15.7227 7.21744 15.9329 6.80474 15.9375 6.78123C15.9627 6.63222 15.759 6.98659 15.7539 6.9824C15.7494 6.96443 15.8975 6.65919 15.9082 6.64256C15.9174 6.63189 15.8445 6.91331 15.9766 6.59861C15.953 6.62981 15.9284 6.66087 15.9043 6.69236C15.9634 6.54306 16.0063 6.54969 16.0254 6.51658C16.085 6.41254 16.0777 6.28035 16.2286 6.13768C16.268 6.10105 16.2555 6.18589 16.2608 6.18162C16.3113 6.1383 16.2726 6.03726 16.3584 5.98045C16.3641 5.97703 16.3193 6.17494 16.4532 5.85154C16.4393 5.87137 16.4253 5.89206 16.4112 5.91209C16.4189 5.8664 16.542 5.52269 16.5557 5.48436C16.6059 5.36251 16.6078 5.4836 16.6436 5.35838C16.5682 5.42365 16.6763 5.03414 16.711 5.07322C16.6694 5.00957 16.7772 4.70964 16.7813 4.60545C16.7904 4.52281 16.7601 4.4079 16.7598 4.39647C16.7616 4.37991 16.8024 4.37879 16.8067 4.34764C16.8087 4.33309 16.7599 4.27485 16.7959 4.26854C16.8035 4.26674 16.8602 4.2294 16.878 4.22166C16.9093 4.20823 16.8797 4.28265 16.918 4.27537C16.9594 4.25623 16.9083 4.19783 16.9082 4.19822C16.9076 4.1634 16.9508 4.13799 16.9639 4.13084C16.9889 4.10583 16.9455 4.07401 16.9414 4.06932C16.9397 4.05168 16.9926 4.05282 17.0069 4.03807C17.029 4.01832 16.9889 3.93458 17.0079 3.93553C17.0439 3.93988 17.0716 4.01197 17.0743 4.01658C17.1299 4.03564 17.1296 3.94089 17.1202 3.89549C17.1198 3.88283 17.1572 3.89236 17.1534 3.88572C17.0862 3.78211 17.0823 3.94244 17.0264 3.89647C16.9719 3.85799 17.0609 3.86284 17.0684 3.86131C17.0694 3.85731 16.9889 3.81119 16.9756 3.791C16.9841 3.7767 17.2281 3.83248 17.2432 3.81053C17.1748 3.76064 17.1073 3.72868 17.0088 3.69529C17.0239 3.64754 17.1336 3.74057 17.1416 3.74315C17.169 3.74826 17.1201 3.69083 17.128 3.67869C17.1341 3.67031 17.2328 3.68986 17.1661 3.63377C17.1432 3.61548 17.0633 3.60773 16.9649 3.53904C17.3722 3.66524 17.1216 3.52768 17.1104 3.50194C17.1035 3.48005 17.3312 3.53967 17.0713 3.43162C17.0938 3.34109 17.0888 3.40442 17.1709 3.42381C17.2639 3.45234 17.0952 3.31065 17.376 3.51268C17.3971 3.46265 17.127 3.32171 17.1065 3.31932C17.0953 3.31113 17.1671 3.31674 17.1465 3.30076C16.908 3.12609 17.078 3.22806 17.0137 3.15037C17.0125 3.14101 16.7168 3.05285 16.9463 3.09764C17.3413 3.18671 17.452 3.37318 17.584 3.30565C17.3605 3.04659 16.9361 3.03143 16.8418 3.01756C16.6881 2.99126 16.8509 2.99393 16.835 2.98338C16.8272 2.97855 16.6982 2.95919 16.7002 2.95799C16.6616 2.9026 16.8049 2.91538 16.9883 2.97264C17.1599 3.02415 17.3596 3.13497 17.4541 3.18553C17.4131 3.14331 17.3671 3.10267 17.3174 3.06346C17.3937 3.09763 17.4653 3.13659 17.5313 3.17967C17.2138 2.96219 17.5297 3.15221 17.6524 3.15135C17.6803 3.14952 17.4474 3.01697 17.7247 3.16014C17.5465 3.01143 17.617 3.03966 17.42 2.95897C17.4434 2.92052 17.8801 3.14635 18.0108 3.32322C17.7895 3.0321 17.6857 3.02739 17.6329 3.00486C17.5711 2.98967 17.5293 2.95932 17.2705 2.82225C17.1625 2.82381 17.4105 2.91294 17.3907 2.91502C17.2971 2.89827 17.1604 2.80088 16.9278 2.83592C16.8919 2.84306 17.0254 2.91319 16.8135 2.86912C16.7827 2.86268 16.6752 2.8104 16.6739 2.8076C16.694 2.78067 16.8125 2.80981 16.8262 2.80076C16.8279 2.78882 16.6902 2.77387 16.6905 2.77147C16.6921 2.73563 16.8028 2.77432 16.7901 2.7617C16.7679 2.733 16.2403 2.5776 16.9366 2.70897C16.3501 2.65691 16.8409 2.71423 17.087 2.77049C17.1454 2.78335 17.167 2.76715 17.2491 2.78807C17.3473 2.8113 17.4905 2.88992 17.542 2.916C17.6002 2.94964 17.2992 2.69836 17.7618 3.01268C17.668 2.908 17.4811 2.80128 17.2998 2.73826C17.1325 2.67785 16.9494 2.64043 16.8145 2.60057C16.585 2.53098 16.6688 2.52017 16.8243 2.53026C17.0108 2.54402 17.256 2.61304 17.3008 2.62791C17.3255 2.6346 17.2546 2.57941 17.2705 2.58299C17.2848 2.56503 17.8275 2.84699 17.8702 2.88182C17.9327 2.89611 17.6925 2.75603 17.6856 2.72947C17.6891 2.67462 18.3078 3.16985 17.9903 2.87401C17.7746 2.65912 17.2724 2.53671 17.2344 2.45897ZM10.3018 16.4678L10.3291 16.4687C10.3261 16.4598 10.3339 16.4601 10.3409 16.459L10.2979 16.458C10.2994 16.4609 10.2998 16.4645 10.3018 16.4678ZM9.14946 16.4599H9.18266C9.18515 16.4571 9.18784 16.4533 9.19145 16.4492H9.1602C9.15174 16.4575 9.14952 16.4611 9.14946 16.4599ZM10.2784 16.4111C10.2831 16.4209 10.2853 16.4299 10.2911 16.4453L10.3545 16.4463C10.3526 16.45 10.3339 16.4347 10.3272 16.4267C10.3228 16.4212 10.3198 16.4156 10.3174 16.4111H10.2784ZM9.18852 16.4219C9.18244 16.4283 9.17638 16.4329 9.17192 16.4375H9.20219C9.21077 16.4276 9.221 16.4157 9.23246 16.4023H9.2061C9.1988 16.4101 9.19354 16.4168 9.18852 16.4219ZM9.12504 16.4375H9.1436C9.14813 16.4274 9.1546 16.4132 9.16118 16.4013H9.14848C9.13567 16.4179 9.11878 16.4396 9.12504 16.4375ZM12.084 16.084C12.075 16.0719 11.8986 16.2545 11.9024 16.2881C11.9328 16.2526 12.0863 16.0949 12.084 16.084ZM9.11821 15.0801C9.0896 15.0769 9.24217 15.2432 9.24418 15.248C9.24811 15.257 9.22893 15.3175 9.24028 15.334C9.25694 15.3572 9.44308 15.5757 9.57914 15.7383C9.58618 15.7305 9.59252 15.7243 9.59672 15.7197C9.61042 15.7179 9.60422 15.7298 9.58891 15.75C9.59857 15.7615 9.60728 15.7733 9.61625 15.7842C9.62346 15.772 9.62873 15.7605 9.63188 15.749C9.60893 15.7172 9.5942 15.7067 9.58207 15.7031C9.55902 15.723 9.55808 15.7164 9.56743 15.6972C9.5638 15.6968 9.56088 15.6978 9.55864 15.6953C9.52701 15.6579 9.47472 15.5642 9.4102 15.4961C9.47324 15.5568 9.52591 15.605 9.58793 15.664C9.58992 15.6613 9.59262 15.659 9.59477 15.6562C9.46778 15.4961 9.1386 15.0871 9.11821 15.0801ZM9.60649 15.6816C9.61459 15.6894 9.62337 15.6968 9.63188 15.7051C9.62852 15.6979 9.62337 15.6907 9.61625 15.6846V15.6836C9.61447 15.6813 9.61233 15.6792 9.61039 15.6767C9.60903 15.6782 9.60797 15.6801 9.60649 15.6816ZM10.0879 15.001C10.0963 14.9941 10.2367 14.7856 10.21 14.8926L10.1856 14.9316C10.1469 14.9831 10.0738 15.0616 10.0459 15.0879C10.0403 15.0929 10.0336 15.0451 9.97954 15.1133C9.93771 15.1665 10.0305 15.1137 9.94047 15.2109C9.85092 15.3074 9.94516 15.1559 9.93657 15.1631C9.92342 15.1749 9.80631 15.3382 9.79496 15.3183C9.7863 15.3045 9.9316 15.1494 9.96684 15.1025C10.0101 15.0445 9.93376 15.0943 10.0166 15.0049C10.0695 14.9476 10.0759 15.0114 10.0879 15.001ZM10.5577 14.7529C10.5251 14.7802 10.3551 15.0074 10.4258 14.9453C10.4871 14.8919 10.6085 14.7114 10.5577 14.7529ZM10.5723 14.6543C10.5554 14.6723 10.2929 14.9662 10.3653 14.9209C10.3929 14.9026 10.8451 14.369 10.5723 14.6543ZM9.02348 14.8066C8.97074 14.71 9.20487 14.9881 9.10746 14.9062C9.103 14.9023 9.02879 14.8142 9.02348 14.8066ZM8.76274 14.6426C8.78584 14.7016 8.89228 14.8234 8.877 14.7734C8.87569 14.7689 8.79061 14.6516 8.76274 14.6426ZM10.6993 14.75C10.6998 14.7707 10.7411 14.7108 10.7784 14.6758V14.6767C10.8204 14.6373 10.9281 14.5235 10.9805 14.4219C10.8841 14.5347 10.7903 14.6444 10.6993 14.75ZM10.7627 14.2129C10.7424 14.2787 10.6077 14.4134 10.543 14.4853C10.5647 14.426 10.6989 14.2778 10.7627 14.2129ZM8.55961 14.3652C8.53945 14.3231 8.43739 14.2406 8.4727 14.3105C8.49902 14.346 8.55832 14.3685 8.55961 14.3652ZM11.0997 14.2461C11.2428 14.1555 11.1421 14.1722 11.0391 14.2705C11.0301 14.3188 11.0763 14.2609 11.0997 14.2461ZM8.24418 14.083C8.25311 14.0961 8.41123 14.2951 8.41996 14.2842C8.38564 14.2276 8.16398 13.9594 8.24418 14.083ZM10.9981 14.1269C10.9754 14.1448 10.8852 14.2663 10.8956 14.2744C10.9211 14.2781 11.0345 14.0989 10.9981 14.1269ZM10.8721 13.9785C10.8427 14.029 10.8675 14.0523 10.8213 14.1025C10.6733 14.264 10.7687 14.1223 10.8721 13.9785ZM11.211 14.165C11.3451 14.0654 11.3118 13.9879 11.2334 14.083C11.2029 14.12 11.1919 14.179 11.211 14.165ZM8.12993 13.8652C8.16032 13.933 8.30862 14.0713 8.28129 14.0263C8.25948 13.9921 8.1002 13.7984 8.12993 13.8652ZM11.0811 13.709C11.1426 13.6724 11.0081 13.8224 11.0069 13.8262C11.0064 13.8342 11.1475 13.7942 10.9161 13.9892C10.8823 14.0177 10.9622 13.8848 10.9522 13.8916C10.9269 13.9132 10.908 13.9315 10.8946 13.9472C10.9768 13.8349 11.068 13.7169 11.0811 13.709ZM11.3897 13.8203C11.4067 13.7708 11.2436 13.9561 11.2364 13.9687C11.192 14.0464 11.3553 13.9177 11.3897 13.8203ZM8.03129 13.7705C7.91943 13.677 8.11248 13.8992 8.17778 13.9756C8.19365 13.9708 8.03946 13.7777 8.03129 13.7705ZM11.1504 13.7441C11.1672 13.7486 11.0206 13.9527 10.9805 13.9404C11.0158 13.9016 11.1387 13.743 11.1504 13.7441ZM11.7217 13.499C11.6974 13.5132 11.548 13.7394 11.5391 13.7471C11.5252 13.7595 11.5541 13.6743 11.4698 13.7881C11.4835 13.7878 11.4533 13.8716 11.4649 13.8633C11.5037 13.8315 11.7877 13.4628 11.7217 13.499ZM11.4991 13.6816C11.5043 13.6715 11.4214 13.7062 11.4024 13.7568C11.3883 13.7953 11.4749 13.7222 11.4991 13.6816ZM7.51567 13.0381C7.58959 13.0881 7.89486 13.4881 7.83207 13.4472C7.7822 13.4154 7.5564 13.1168 7.51567 13.0381ZM11.8252 12.8096C11.8029 12.8032 11.632 13.0528 11.5782 13.1055C11.5744 13.1722 11.7104 12.9452 11.7471 12.9131L11.7373 12.9853C11.7393 13.0049 11.7599 12.9866 11.8409 12.832C11.7214 12.9679 11.8296 12.8162 11.8252 12.8096ZM11.8692 12.7627C11.9609 12.6409 11.8471 12.691 11.8077 12.7803C11.8057 12.7856 11.8625 12.7707 11.8692 12.7627ZM7.13579 12.5185C7.16978 12.5665 7.28136 12.6907 7.26274 12.6924C7.20288 12.6236 7.13769 12.5565 7.13579 12.5185ZM7.00981 12.5801C6.97726 12.5294 6.98222 12.5032 6.96098 12.4844C6.9536 12.4785 6.93743 12.4882 6.91411 12.4668C6.94525 12.5036 6.97796 12.5426 7.00981 12.5801ZM15.5938 11.8887C15.5716 11.967 15.3354 12.2131 15.3623 12.1582C15.3706 12.1438 15.5976 11.8573 15.5938 11.8887ZM6.51664 11.8555C6.45534 11.7596 6.31561 11.6017 6.36332 11.6894C6.37376 11.7086 6.50374 11.8555 6.51664 11.8555ZM12.6622 11.6875C12.5978 11.7424 12.525 11.8746 12.5684 11.8379C12.5793 11.8279 12.6762 11.6923 12.6622 11.6875ZM4.12309 11.3945C4.20852 11.5126 4.3568 11.5952 4.24418 11.4531C4.23174 11.4379 4.12285 11.3756 4.12309 11.3945ZM6.24028 11.5137C6.207 11.4599 6.07532 11.2967 6.12114 11.3779C6.14094 11.413 6.22131 11.5104 6.24028 11.5137ZM13.6006 10.3838C13.5638 10.4523 13.2947 10.7964 13.3028 10.8096C13.3135 10.8231 13.5994 10.4237 13.6006 10.3838ZM3.32621 10.2324C3.33317 10.2479 3.29353 10.2661 3.29887 10.2832C3.30146 10.2917 3.46411 10.514 3.48051 10.5459C3.4851 10.5551 3.48801 10.5629 3.49028 10.5683C3.47907 10.5263 3.6135 10.7329 3.59672 10.7353C3.58846 10.7336 3.50254 10.5964 3.49711 10.5859C3.4961 10.5836 3.49495 10.581 3.49418 10.5791C3.49773 10.6165 3.18614 10.1301 3.23344 10.249C3.13222 10.1145 3.27634 10.2484 3.19829 10.1494C3.17178 10.1156 3.10609 10.1084 3.00981 9.90428V9.9033C2.98228 9.84464 3.02993 9.89972 3.02836 9.88865C3.02808 9.88492 2.93963 9.69202 3.03422 9.83787C3.17589 10.0546 3.01552 9.87956 3.08793 9.99705C3.09889 10.0144 3.2572 10.2161 3.2559 10.2021C3.25561 10.2004 3.20899 10.1364 3.20414 10.124C3.18587 10.0775 3.21073 10.089 3.20805 10.083C3.19722 10.0634 2.95631 9.72631 2.9434 9.65916C2.93959 9.64168 3.31117 10.2049 3.32621 10.2324ZM3.45414 10.3388C3.49718 10.4583 3.60945 10.6258 3.61332 10.5635C3.48737 10.3753 3.60199 10.6071 3.45414 10.3388ZM5.3145 10.1728C5.25646 10.0561 5.51249 10.4197 5.41313 10.3135C5.40818 10.3082 5.3183 10.18 5.3145 10.1728ZM3.09184 9.68065C3.01166 9.58315 3.14744 9.84268 3.18559 9.87791C3.20343 9.89355 3.12713 9.72401 3.09184 9.68065ZM9.23832 9.70115C9.19254 9.62044 9.18425 9.64245 9.18754 9.6494C9.21819 9.70851 9.28942 9.79289 9.23832 9.70115ZM2.20805 8.42674C2.2149 8.43743 2.29181 8.61477 2.33696 8.69334C2.47242 8.92873 2.46079 8.85757 2.46879 8.87108C2.47783 8.88604 2.549 9.04541 2.5977 9.12791C2.72098 9.33641 2.78298 9.41397 2.93559 9.70213C2.82534 9.551 2.84837 9.65614 2.75102 9.47361C2.76365 9.48603 2.77643 9.49832 2.78911 9.51072C2.63131 9.26856 2.47164 8.94835 2.31157 8.65428C2.26931 8.57667 2.29429 8.6798 2.24516 8.57322C2.20574 8.48744 2.17955 8.3848 2.20805 8.42674ZM4.69926 9.28416C4.7207 9.29463 4.88661 9.51143 4.87797 9.53319C4.8659 9.56435 4.72553 9.3277 4.69926 9.28416ZM8.93071 9.40623C8.57885 8.91236 8.57818 8.82047 8.87504 9.28611C8.87885 9.29221 8.95692 9.43541 8.93071 9.40623ZM14.3682 9.34178C14.3602 9.34678 14.3523 9.34781 14.3438 9.34276C14.3653 9.33005 14.3712 9.33172 14.3682 9.34178ZM7.86039 7.87205C7.89089 7.90747 7.87419 7.86204 7.90727 7.90233C8.01708 8.03666 8.10163 8.16209 8.20024 8.28904C8.20909 8.3004 8.14979 8.2057 8.22465 8.30272C8.23488 8.31599 8.29611 8.42165 8.38481 8.53611C8.62122 8.77156 8.72164 8.99261 8.96977 9.32908C8.96111 9.30677 8.8024 9.05291 8.79008 9.03514C8.59802 8.74205 8.22557 8.24279 7.99516 7.95994C7.93629 7.88691 7.95638 7.92841 7.93071 7.89744C7.91035 7.87296 7.94888 7.88857 7.877 7.81248C7.84269 7.77622 7.9227 7.90674 7.89848 7.88377C7.88263 7.86825 7.8175 7.77659 7.78911 7.75291C7.78301 7.7495 7.83941 7.84763 7.86039 7.87205ZM4.25786 8.72557C4.08725 8.41678 5.02531 9.8501 4.4395 9.04783C4.47273 9.08153 4.50652 9.11565 4.54008 9.1494C4.47667 9.04189 4.38952 8.91519 4.37407 8.91795C4.37441 8.91439 4.3726 8.90799 4.36918 8.89842C4.36535 8.88825 4.28548 8.77781 4.25786 8.72557ZM9.15239 9.24022C9.15083 9.24434 9.15004 9.24876 9.14848 9.25291L9.15825 9.25096C9.15984 9.24684 9.16253 9.24322 9.16411 9.23924L9.15239 9.24022ZM10.2549 9.1367C10.2572 9.14067 10.2596 9.14452 10.2618 9.14842L10.2735 9.14744C10.2711 9.14328 10.2681 9.13892 10.2657 9.13475L10.2549 9.1367ZM8.28715 8.42772C8.27381 8.42936 8.40105 8.58597 8.42289 8.59666C8.39653 8.56051 8.29322 8.42965 8.28715 8.42772ZM10.7735 8.38377C10.781 8.34606 10.6984 8.51854 10.6797 8.57225C10.6824 8.59263 10.7732 8.38653 10.7735 8.38377ZM10.7413 8.53221C10.7422 8.5464 10.8348 8.35591 10.8301 8.33885C10.8096 8.38332 10.7421 8.51708 10.7413 8.53221ZM8.14946 8.25975C8.24212 8.41191 8.13861 8.2462 8.12504 8.26268C8.19748 8.35559 8.38124 8.60195 8.27153 8.42283C8.24935 8.38693 8.1831 8.30504 8.14946 8.25975ZM14.9942 8.24315C15.0785 8.13862 15.0834 8.26448 15.001 8.34276C14.9905 8.35169 14.8802 8.384 14.9942 8.24315ZM2.17778 8.13279C2.18302 8.14711 2.2686 8.30503 2.27543 8.2949C2.24939 8.2326 2.14226 8.03918 2.17778 8.13279ZM11.4434 7.00682C11.4055 7.0586 11.3094 7.2526 11.2989 7.29881C11.2925 7.30494 11.2788 7.3239 11.2549 7.35838C11.2049 7.40025 10.4399 8.93866 10.9747 7.91404C10.9912 7.88342 10.9581 7.92075 11.0264 7.79295C11.031 7.78441 11.0424 7.78424 11.0567 7.75779C11.0902 7.69353 11.2685 7.37679 11.2989 7.30955C11.3007 7.3099 11.3045 7.30654 11.3106 7.29881C11.3656 7.22779 11.4735 6.96402 11.4434 7.00682ZM9.62211 8.166C9.63044 8.17872 9.63912 8.19128 9.6475 8.20408C9.65351 8.19163 9.66002 8.17942 9.66606 8.16697C9.65589 8.15998 9.64112 8.14958 9.63286 8.14256C9.62924 8.15035 9.62571 8.15819 9.62211 8.166ZM8.00786 8.11131C8.03968 8.14971 8.11201 8.20277 8.0518 8.12303C8.03469 8.11247 7.93726 8.02554 8.00786 8.11131ZM9.61137 8.1494C9.61446 8.14311 9.61805 8.13709 9.62114 8.13084C9.55225 8.04033 9.5496 7.99543 9.54399 7.98533C9.52216 7.95182 9.49076 7.92375 9.46977 7.89256C9.43517 7.84111 9.4228 7.80802 9.37797 7.74315C9.34667 7.698 9.36317 7.75164 9.33305 7.70799C9.32211 7.6916 9.22972 7.49416 9.18559 7.50389C9.19415 7.51496 9.39075 7.81255 9.61137 8.1494ZM7.57329 7.56834C7.61321 7.60343 8.07819 8.194 7.99321 8.0576C7.98194 8.03355 7.57007 7.5195 7.57329 7.56834ZM15.2647 7.84959C15.2754 7.87402 15.1941 7.98857 15.1592 8.03611C15.145 8.02321 15.2377 7.9001 15.2647 7.84959ZM9.22758 7.61424C9.23946 7.63288 9.38508 7.83755 9.39555 7.83494C9.35736 7.77254 9.1618 7.504 9.22758 7.61424ZM7.68364 7.73533C7.70938 7.77848 7.7982 7.85888 7.76176 7.79588C7.72254 7.74588 7.67809 7.72585 7.68364 7.73533ZM7.41801 7.25779C7.40627 7.24051 7.20823 7.04599 7.27446 7.13963C7.32035 7.20439 7.34394 7.20109 7.35649 7.21483C7.3724 7.23128 7.64503 7.5757 7.41801 7.25779ZM11.502 7.04197C11.4989 7.06395 11.3407 7.31975 11.3282 7.32908C11.3841 7.22839 11.4443 7.12984 11.502 7.04197ZM15.7198 7.05467C15.7177 7.06053 15.6635 7.15565 15.6592 7.16111C15.5864 7.23655 15.7537 6.93978 15.7198 7.05467ZM6.9268 6.88768C6.90529 6.88136 7.05122 7.02612 7.07914 7.03611C7.04182 6.99366 6.94551 6.89408 6.9268 6.88768ZM11.5577 6.83104C11.5499 6.84153 11.4492 6.99867 11.4727 6.9824C11.5068 6.95795 11.5917 6.78763 11.5577 6.83104ZM1.48735 6.55955C1.47445 6.56805 1.55285 6.77515 1.55278 6.74608C1.5516 6.73537 1.49656 6.55256 1.48735 6.55955ZM11.7793 6.541C11.7907 6.52783 11.8672 6.51279 11.752 6.65233C11.7315 6.67748 11.7883 6.56397 11.6661 6.7451C11.7538 6.60812 11.7128 6.62125 11.7793 6.541ZM6.47368 6.41014C6.50865 6.44652 6.83299 6.75698 6.73149 6.63475C6.71544 6.61332 6.36277 6.28325 6.47368 6.41014ZM10.9483 5.91014C10.9846 5.88405 10.8023 6.13733 10.7959 6.14647C10.7363 6.21853 10.8889 5.97488 10.9483 5.91014ZM16.295 5.91014C16.3125 5.91545 16.2396 6.08969 16.2315 6.10057C16.1898 6.15366 16.2484 5.96601 16.295 5.91014ZM7.74321 5.68748C7.75978 5.68678 7.8883 5.83823 7.93754 5.88963C7.92109 5.88904 7.79402 5.73742 7.74321 5.68748ZM1.15727 5.54197C1.15938 5.40198 1.24608 6.08462 1.18071 5.77049C1.17619 5.75454 1.15603 5.55462 1.15727 5.54197ZM5.49028 5.65037C5.46172 5.59802 5.61041 5.69568 5.69829 5.77537C5.71833 5.79329 5.78095 5.87397 5.68754 5.81053C5.70927 5.78651 5.57742 5.67393 5.49028 5.65037ZM16.4336 5.48045C16.4073 5.57258 16.3784 5.66816 16.3457 5.76561C16.3376 5.69754 16.4139 5.56382 16.4336 5.48045ZM16.6319 5.51561C16.5919 5.53223 16.5661 5.67929 16.5254 5.76072C16.5739 5.7353 16.6028 5.59489 16.6319 5.51561ZM12.4454 5.7119C12.5404 5.55497 12.5922 5.55766 12.5831 5.57029C12.4743 5.72878 12.5272 5.6203 12.5254 5.61815C12.5148 5.62712 12.437 5.74586 12.4454 5.7119ZM16.5752 5.52049C16.5722 5.52369 16.5093 5.7019 16.5225 5.71092C16.5555 5.6318 16.6184 5.48507 16.5752 5.52049ZM16.7129 5.44139C16.6821 5.45478 16.634 5.61425 16.6114 5.6826C16.653 5.66449 16.6809 5.5153 16.7129 5.44139ZM5.41606 5.52537C5.45717 5.53451 5.55824 5.60929 5.62504 5.65916C5.60363 5.65689 5.46598 5.55674 5.41606 5.52537ZM1.10649 5.1494C1.1216 5.06597 1.11407 5.1909 1.11821 5.33885C1.12053 5.46986 1.13527 5.62483 1.14067 5.64354C1.11417 5.68197 1.08935 5.20934 1.10649 5.1494ZM2.70707 5.3574C2.71784 5.38376 2.75846 5.59248 2.75493 5.62694C2.73001 5.55129 2.71623 5.43428 2.70707 5.3574ZM5.15727 5.40819C4.83005 5.23998 4.95182 5.19452 5.35063 5.48045C5.33579 5.47534 5.32052 5.47076 5.30571 5.4658C5.76812 5.79153 5.33539 5.48744 5.21489 5.42186C5.16969 5.39622 5.19908 5.43053 5.15825 5.40819H5.15727ZM16.3946 5.35643C16.3903 5.3817 16.3473 5.47962 16.3321 5.52537C16.3165 5.45921 16.4107 5.26517 16.3946 5.35643ZM16.4346 5.47752L16.4336 5.48045C16.4342 5.47856 16.4341 5.47648 16.4346 5.47459V5.47752ZM2.67875 5.17381C2.68762 5.18389 2.69643 5.33211 2.6895 5.3535C2.67696 5.30875 2.67865 5.22545 2.67875 5.17381ZM16.7305 5.11815C16.6958 5.15483 16.6632 5.3699 16.6827 5.33885C16.6913 5.32522 16.7513 5.09649 16.7305 5.11815ZM12.7432 5.23924C12.7623 5.22381 12.7188 5.28721 12.6914 5.31639C12.6426 5.36826 12.6813 5.28964 12.7432 5.23924ZM4.74809 5.16307C4.76768 5.17007 4.89624 5.24949 4.94633 5.27537C4.86807 5.25403 4.62327 5.11594 4.74809 5.16307ZM11.7969 4.94725C11.7853 4.95798 11.5881 5.18561 11.5909 5.19627C11.6198 5.16218 11.9093 4.82891 11.7969 4.94725ZM11.8848 4.9824C11.8394 5.03615 11.7082 5.17932 11.709 5.19432C11.7524 5.13859 11.8838 4.9977 11.8848 4.9824ZM11.8809 4.81151C11.8784 4.81544 11.9333 4.77508 11.8389 4.87889C11.8312 4.88783 11.8025 4.89294 11.6914 5.03319C11.6689 5.0618 11.6416 5.11269 11.6446 5.11033C11.7811 4.9821 12.1227 4.5317 11.8809 4.81151ZM4.41508 5.01854C4.51023 5.05667 4.39606 5.04057 4.34965 5.01268C4.33239 5.00215 4.3908 5.00901 4.41508 5.01854ZM13.1983 4.88865C13.2928 4.81282 12.992 5.10883 13.0811 5.00389C13.0857 4.99797 13.1933 4.89219 13.1983 4.88865ZM3.91606 4.86326C3.61375 4.73518 4.20975 4.89825 4.38676 4.97361C4.20936 4.93422 3.99318 4.86587 4.28129 4.98631C3.849 4.85538 4.03292 4.89374 4.01762 4.88377C3.99773 4.87599 3.92871 4.86865 3.91606 4.86326ZM6.76176 4.70311C6.82584 4.7328 6.96856 4.86537 7.06059 4.94822C7.00924 4.9218 6.8438 4.77043 6.76176 4.70311ZM4.20024 4.87303C4.24126 4.88066 4.32719 4.9268 4.29301 4.92479C4.24849 4.92165 4.19067 4.87179 4.20024 4.87303ZM13.7217 4.44041C13.7172 4.44324 13.7135 4.44594 13.711 4.44725C13.678 4.47987 13.2799 4.81518 13.2588 4.83787C13.1328 4.92955 13.6634 4.4599 13.6885 4.45506C13.6977 4.44949 13.7042 4.44591 13.7081 4.44432C13.7254 4.42401 13.8294 4.3437 13.8497 4.34373C13.8173 4.36627 13.7341 4.43201 13.7217 4.44041ZM3.58696 4.76951C3.48698 4.73428 3.90479 4.76092 3.99223 4.80565C3.9784 4.81105 3.59994 4.76655 3.58696 4.76951ZM6.68657 4.77733C6.70671 4.76827 6.43686 4.56766 6.53129 4.66209C6.55528 4.6854 6.68048 4.77997 6.68657 4.77733ZM13.3623 4.61619C13.3355 4.65816 13.3126 4.67942 13.212 4.76951C13.356 4.63033 13.2117 4.74702 13.3623 4.61619ZM12.8565 3.9326C12.8138 3.94964 12.1857 4.54669 12.1153 4.64451C12.1931 4.55656 12.819 3.97099 12.8545 3.95115C12.862 3.94312 12.8607 3.92996 12.8565 3.9326ZM17.0196 4.36033C17.0068 4.33624 16.9781 4.43146 17.002 4.44822C17.0184 4.45592 17.0288 4.37518 17.0196 4.36033ZM12.6309 4.31444C12.567 4.35392 12.5318 4.43719 12.6182 4.35643C12.644 4.33241 12.6378 4.31038 12.6309 4.31444ZM12.5635 4.07029C12.512 4.13181 12.3475 4.28022 12.2588 4.37205C12.2367 4.36964 12.4951 4.13262 12.5635 4.07029ZM18.9414 3.59764C18.862 3.32531 18.4353 2.37881 18.9502 3.33885H18.9493C19.0439 3.59826 18.958 3.44735 18.9629 3.45994C19.092 3.9918 19.0804 3.83322 19.1104 3.91502C19.1488 4.07976 19.086 4.08195 19.125 4.33104C19.0577 3.8986 19.102 4.30067 19.0762 4.3076C18.9914 4.38022 19.0792 3.7065 18.9366 3.45115C18.9242 3.41883 18.9781 3.68126 18.9414 3.59764ZM19.1387 3.92479C19.1689 3.84756 19.2099 4.26055 19.1973 4.29588C19.1972 4.31794 19.1103 4.02346 19.1387 3.92479ZM6.0352 4.14451C6.04711 4.1512 6.19005 4.25054 6.19536 4.25584C6.30664 4.35287 5.89058 4.06457 6.0352 4.14451ZM14.2832 4.03611C14.2901 4.03466 14.1259 4.16221 14.0469 4.21092C13.8959 4.29936 14.2677 4.03797 14.2832 4.03611ZM13.2647 3.83494C13.2059 3.87536 13.0368 4.00395 13.0147 4.03514C13.0738 3.98294 13.2459 3.85999 13.2647 3.83494ZM13.9346 3.26756C13.7964 3.344 13.6623 3.42668 13.5313 3.51365C13.6785 3.45885 13.4055 3.62264 13.3018 3.66502C13.2697 3.69669 13.2382 3.72959 13.2071 3.7617C13.1224 3.77154 13.1413 3.8418 13.0069 3.9033C12.8883 4.06076 13.4251 3.57948 13.5293 3.57518C12.8844 4.01345 13.9812 3.3234 13.4922 3.57322C13.884 3.34853 13.6137 3.48573 13.667 3.44139C13.7253 3.39299 13.953 3.27423 13.9346 3.26756ZM5.16996 3.69334C5.15681 3.65918 5.44372 3.82004 5.54008 3.87303C5.55179 3.90483 5.27503 3.7364 5.16996 3.69334ZM13.8233 3.25486C13.723 3.33466 13.6266 3.37403 13.4844 3.46776C13.4467 3.49292 13.4612 3.49338 13.4571 3.49608C13.3921 3.53991 13.435 3.49922 13.3946 3.52635C13.3599 3.5412 12.8661 3.93258 12.9288 3.86815C12.9633 3.80847 13.6896 3.31055 13.8233 3.25486ZM4.97368 3.72654C5.03965 3.76939 5.15212 3.787 5.09379 3.74705C5.02913 3.71545 4.96674 3.72205 4.97368 3.72654ZM14.7579 3.70604C14.749 3.6902 15.0587 3.57764 15.1358 3.55369C15.0569 3.58957 14.8735 3.65691 14.7579 3.70604ZM17.3643 3.42576C17.4064 3.48222 17.4471 3.54585 17.4756 3.60838C17.5516 3.60569 17.4662 3.54618 17.4454 3.51658C17.427 3.48881 17.4307 3.44923 17.3643 3.42576ZM4.59282 3.45701C4.61523 3.45185 4.82709 3.53113 4.89848 3.55858C4.84622 3.55362 4.69727 3.49229 4.59282 3.45701ZM4.49125 3.54881C4.32926 3.47649 4.3281 3.52004 4.45121 3.55565C4.49316 3.56827 4.49578 3.55192 4.49125 3.54881ZM13.9668 3.30955C13.9512 3.31427 13.6637 3.48891 13.6846 3.48631C13.7225 3.46186 14.1414 3.22494 13.9668 3.30955ZM3.2686 3.35252C3.14103 3.35204 2.95861 3.36493 2.92289 3.37986C3.00226 3.36834 3.16822 3.36532 3.2686 3.36424C3.3171 3.36323 3.34725 3.36102 3.33696 3.35252C3.31889 3.35277 3.29518 3.35234 3.2686 3.35252ZM18.5069 3.01561C18.3992 2.83628 18.6918 3.22301 18.7276 3.35838C18.7178 3.355 18.524 3.02603 18.5069 3.01561ZM3.26664 3.21873C3.84956 3.22248 4.06919 3.30948 4.04594 3.30467C4.01942 3.31003 3.74724 3.24453 3.26664 3.23729C3.16118 3.2367 3.04957 3.23996 2.93266 3.24998C2.92899 3.23461 2.92489 3.23858 3.02836 3.22947C3.11158 3.22266 3.1913 3.21952 3.26664 3.21873ZM16.1836 3.28514C16.2191 3.2922 16.0672 3.30185 16.0127 3.30174C15.8905 3.29899 16.1707 3.28041 16.1836 3.28514ZM14.2735 3.09666C14.2433 3.10598 13.9917 3.22906 13.9766 3.25096C14.0984 3.19871 14.3386 3.0718 14.2735 3.09666ZM15.2735 2.83299C15.061 2.86779 14.7225 2.95957 14.5245 3.03611C14.4676 3.05722 14.4157 3.08657 14.3682 3.10643C14.2926 3.13822 14.3547 3.09881 14.3497 3.10057L14.2754 3.13475C14.2104 3.16933 14.1856 3.197 14.3428 3.12694C14.2704 3.16325 14.1991 3.20073 14.1289 3.24022C14.404 3.12107 14.3734 3.10482 14.4532 3.07127C14.5663 3.02712 14.5681 3.05744 14.5489 3.0742C14.6326 3.01853 15.0332 2.8814 15.2735 2.83299ZM16.8916 3.05565C17.0115 3.06144 17.2111 3.14923 17.3155 3.19236C17.3258 3.19709 17.3092 3.0886 17.417 3.21385C17.4867 3.2824 16.9883 3.09336 16.8916 3.05565ZM14.8418 3.00194C14.4812 3.13546 14.6107 3.07008 14.543 3.08592C14.4019 3.12521 14.4704 3.15789 14.4883 3.1533C14.5597 3.13107 14.7925 3.0217 14.8418 3.00194ZM19.0186 2.83006C19.0314 2.84239 19.1615 3.07904 19.1612 3.08885C19.2523 3.31323 18.8546 2.60226 19.0186 2.83006ZM15.4903 2.72654C15.2593 2.7469 15.0086 2.84251 14.9795 2.85154C14.9446 2.8603 14.9955 2.83111 14.9873 2.83299C14.9662 2.83378 14.5968 2.9552 14.5801 2.96678C14.5679 2.97231 14.6414 2.96827 14.5694 3.00291C14.7058 2.9207 15.4 2.75206 15.4385 2.75682C15.4668 2.7511 15.249 2.7608 15.587 2.72264L15.4903 2.72654ZM14.8702 2.82225C14.6949 2.86471 14.3361 3.02737 14.4766 2.94334C14.5479 2.9011 14.6046 2.89787 14.6143 2.89451C14.7097 2.86061 14.9106 2.79667 14.8702 2.82225ZM14.8897 2.87303C14.9853 2.85328 14.7263 2.93367 14.6631 2.95506C14.5232 2.99643 14.8713 2.87406 14.8897 2.87303ZM15.1202 2.72166C15.2848 2.68856 14.5571 2.8897 14.5176 2.91795C14.56 2.88474 15.0955 2.71702 15.1202 2.72166ZM14.6182 2.84959C14.6462 2.84433 14.6006 2.87231 14.5225 2.90233C14.4918 2.90706 14.5524 2.86235 14.6182 2.84959ZM15.378 2.79197C15.2556 2.81343 15.0682 2.85325 15.0069 2.88377C15.1253 2.85011 15.3135 2.81546 15.378 2.79197ZM15.127 2.70701C15.102 2.70577 14.5694 2.87678 14.6661 2.83104C14.7297 2.78805 15.2649 2.66138 15.127 2.70701ZM17.1446 2.74315C17.0423 2.69503 17.2816 2.75485 17.3487 2.79686C17.343 2.80974 17.163 2.74903 17.1446 2.74315ZM16.6573 2.61522C16.7881 2.65599 16.4495 2.64182 16.4092 2.60643C16.4068 2.59804 16.6322 2.60571 16.6573 2.61522ZM16.6416 2.53709C16.7458 2.56592 16.5101 2.55009 16.4356 2.53807C16.4319 2.52084 16.6253 2.5316 16.6416 2.53709ZM16.3331 2.25194C16.6868 2.31952 16.3837 2.29418 17.1514 2.37791C16.8187 2.35055 17.1245 2.40755 17.0586 2.41307C17.0062 2.41581 16.8171 2.36783 16.9219 2.42088C16.7881 2.34673 16.2323 2.32086 16.1944 2.32225H16.1954C16.1794 2.31832 16.2215 2.23679 16.3331 2.25194ZM16.6104 2.25779C16.6179 2.24603 16.7414 2.2554 16.8721 2.27928C17.027 2.30593 17.1823 2.35305 17.2286 2.36717C17.1988 2.36995 17.035 2.33276 16.8721 2.30858C16.7336 2.28705 16.6044 2.27155 16.6104 2.25779Z" fill="#FF3C3C"/>
</svg>
