<svg width="19" height="17" viewBox="0 0 19 17" fill="none" xmlns="http://www.w3.org/2000/svg">
<path d="M16.2344 0.458966C16.5763 0.554599 16.9952 0.766454 17.2774 1.13084C17.151 0.918582 16.9621 0.724764 16.7774 0.58592C17.2048 0.82174 17.5055 1.25553 17.6739 1.69529C17.5074 1.13113 17.5204 1.20885 17.6504 1.43651C17.7732 1.67811 17.8263 2.02729 17.8311 2.03904C17.8449 2.03329 17.8235 1.60602 17.7901 1.5117C18.0307 1.93721 17.9654 3.01926 18.0723 2.38182C18.0581 2.49626 18.0839 2.77013 18.087 2.77928C18.1419 2.74849 18.116 2.11881 18.1465 2.21873C18.1943 2.33779 18.1422 2.5082 18.1329 2.68846C18.0469 3.54206 18.2718 3.35687 18.0079 4.11131C18.0197 4.09849 18.0313 4.08514 18.043 4.07225C17.7606 4.85359 17.4053 5.51924 17.0274 6.16697C16.9384 6.44847 16.5689 7.1208 16.3555 7.43162C16.3148 7.49291 16.0873 7.78106 16.0664 7.80174C16.0297 7.83882 16.1827 7.60328 16.0967 7.69822C16.0797 7.71924 15.7217 8.22252 15.7706 8.20506C15.8127 8.15106 15.9212 7.96467 15.9483 7.93748C16.1374 7.77022 15.0104 9.29333 14.9639 9.37401C14.9971 9.34628 15.0303 9.31783 15.0635 9.29002C14.9883 9.38325 14.9133 9.47622 14.8379 9.56834C14.8597 9.52478 14.8818 9.48111 14.9034 9.43748C14.8171 9.54365 14.7113 9.69419 14.628 9.79002C14.6148 9.80442 14.626 9.74809 14.5957 9.78611C14.5657 9.82412 14.5986 9.83701 14.5586 9.89549C14.5138 9.96131 14.2708 10.2381 14.1934 10.3379C13.9059 10.7107 13.623 11.0957 13.3135 11.4531C13.6037 11.0562 13.2715 11.4259 13.1934 11.5381C13.1766 11.5626 13.2271 11.6003 12.9063 11.9629C12.698 12.1975 12.8128 11.9236 12.5166 12.3457C12.8172 12.0832 12.568 12.3743 12.3653 12.6162C12.3282 12.6609 12.0445 12.9787 11.919 13.1279C11.8759 13.1794 11.8337 13.2767 11.7774 13.3428C11.7387 13.3881 11.6962 13.4114 11.6397 13.4775C11.3691 13.7936 11.0987 14.1008 10.8204 14.4023C10.916 14.1768 10.6738 14.5148 10.6504 14.5351C10.5685 14.5941 10.8621 14.257 10.7354 14.3779C10.5629 14.5744 10.4211 14.7351 10.2403 14.9375C10.3811 14.7977 10.1227 15.1634 10.0303 15.2256C10.0723 15.2388 9.80021 15.4966 9.53618 15.7392L8.69438 16.6201L7.92289 15.7265C7.75755 15.5072 7.61634 15.3127 7.56157 15.2627C7.53575 15.2391 7.6608 15.4405 7.31547 15.0039C7.27771 14.9559 7.30756 14.9603 7.2852 14.9365C7.27165 14.9226 7.14282 14.8684 7.0977 14.7578C7.07785 14.713 7.29731 14.9138 6.87797 14.4316C6.98636 14.668 6.3048 13.7842 6.18364 13.6045C6.20166 13.6408 6.22089 13.6786 6.24125 13.7178C6.13013 13.542 6.09374 13.5314 6.06547 13.4941C5.95516 13.3481 5.80752 13.1268 5.70317 12.9971C5.57708 12.8402 5.54616 12.8643 5.4102 12.665C5.43845 12.7154 5.46706 12.7663 5.49516 12.8164C5.39298 12.6822 5.29954 12.5566 5.20121 12.4258C5.46947 12.689 5.1564 12.3641 5.13383 12.3369C5.10278 12.2996 5.16193 12.3411 5.11039 12.2783C5.1049 12.2718 5.09608 12.2941 5.01762 12.1953C4.85618 11.9915 4.90199 12.0102 4.83598 11.9238C4.82981 11.9158 4.83687 11.9546 4.71977 11.8066C4.34634 11.3324 4.73259 11.8024 4.74809 11.8183C4.76803 11.8383 4.70525 11.6347 4.9893 12.0508C4.89393 11.912 4.90819 11.877 4.8975 11.8613C4.88802 11.848 4.70773 11.6175 4.69438 11.6015C4.59716 11.4909 4.65716 11.6073 4.63676 11.5869C4.61749 11.5666 4.43 11.269 4.32719 11.2412C4.27436 11.0672 4.43136 11.2878 4.60844 11.5078C4.64291 11.5329 4.46859 11.2809 4.4561 11.2637C4.21427 10.9386 4.30768 11.1481 4.22954 11.0967C4.18837 11.0692 4.1166 10.9142 4.17192 11.0654C3.9495 10.7702 4.10309 10.9349 4.09184 10.9131C4.07492 10.8808 3.99076 10.7867 3.98149 10.7715C3.96961 10.7509 4.02965 10.8076 3.97954 10.7295C3.97104 10.7165 3.8611 10.6108 3.96489 10.7754C3.81564 10.5634 3.81 10.5929 3.79496 10.4941C3.622 10.4002 3.75928 10.3586 3.7227 10.2988C3.62535 10.1412 3.60242 10.2208 3.59379 10.2168C3.53698 10.1742 3.2566 9.73584 3.17582 9.63475C3.24358 9.64899 3.4115 9.97275 3.46586 10.0332C3.6459 10.2344 3.26777 9.70935 3.42875 9.83299C3.36839 9.77592 3.30828 9.71882 3.24809 9.66111C3.19401 9.51487 3.32855 9.68013 3.08793 9.35545C3.02322 9.32022 3.25384 9.58786 3.19243 9.5449C3.15602 9.51945 3.02194 9.33002 3.01176 9.32908C3.00114 9.33091 3.12908 9.49744 3.09965 9.48045C3.03071 9.43944 2.6231 8.7815 2.96684 9.25877C2.8744 9.12352 2.87928 9.01586 2.78325 8.90819C2.72265 8.8399 2.93586 9.3216 2.51957 8.66209C2.53568 8.63313 2.69815 8.91797 2.70512 8.92381C2.71464 8.93047 2.73732 8.84335 2.73442 8.83299C2.72186 8.7977 2.25643 8.14931 2.19731 7.98729C2.2006 8.06751 1.87238 7.4749 1.82719 7.41795C1.81448 7.40293 1.83117 7.47747 1.8184 7.46092C1.73987 7.35883 1.59494 7.02865 1.51567 6.88475C1.42722 6.72508 1.42211 6.75492 1.41703 6.74608C1.37925 6.67539 1.4221 6.72442 1.39848 6.68162C1.36221 6.61965 1.12028 6.15609 1.10746 6.13279C1.1033 6.12646 1.1205 6.21145 1.06645 6.11424C1.05726 6.09615 1.08565 6.10061 0.924848 5.79393C0.736889 5.42817 1.01901 6.06689 0.920941 5.92479C0.840455 5.66699 0.81159 5.69295 0.784223 5.62694C0.775432 5.60475 0.728666 5.42302 0.646527 5.23045C0.708228 5.36527 0.774212 5.50219 0.836957 5.62596C0.785863 5.50285 0.663639 5.23797 0.626996 5.12694C0.608643 5.07242 0.650034 5.1057 0.604535 4.99119C0.595761 4.96732 0.493899 4.89271 0.643598 5.18651C0.631844 5.21983 0.586136 5.06802 0.55473 5.00389C0.548838 4.99278 0.49941 4.97233 0.487348 4.8701C0.491015 4.84968 0.664685 5.0402 0.387738 4.45701C0.379193 4.4381 0.386668 4.51052 0.377973 4.49217C0.371192 4.47808 0.330947 4.32022 0.323285 4.29783C0.315845 4.27944 0.323889 4.36708 0.314496 4.34471C0.265821 4.22872 0.285632 4.05834 0.345746 4.30369C0.330263 4.21969 0.316769 4.13601 0.305707 4.05369C0.280886 4.15004 0.263332 3.93296 0.243207 3.81639C0.136861 3.0178 0.172823 3.55448 0.141644 3.41893C0.111268 3.1887 0.17961 3.36451 0.177777 2.99119C0.177961 2.97405 0.161349 3.07195 0.155316 3.07615C0.159146 3.06668 0.130905 3.02417 0.184613 2.78904L0.208051 2.70408C0.191643 2.7796 0.180748 2.85256 0.173871 2.91404C0.210049 2.85974 0.290683 2.38641 0.320355 2.3535C0.408487 2.15412 0.444426 2.12102 0.478558 2.06736C0.517796 2.019 0.561608 1.91507 0.808637 1.69236C0.853944 1.65266 0.96538 1.58415 1.07426 1.51951C1.29019 1.40224 1.14766 1.45128 0.93266 1.58494C0.721695 1.71071 0.5073 1.96768 0.491254 1.98143C0.48066 1.98649 0.69124 1.69667 0.986371 1.52733C1.2774 1.35216 1.54253 1.30215 1.56743 1.29588C1.72713 1.26066 1.07928 1.46313 1.21293 1.44725C1.22885 1.44338 1.37491 1.37438 1.59282 1.32225C1.80679 1.27119 2.02452 1.24796 2.26762 1.24608C2.53884 1.24386 2.78158 1.27678 2.87504 1.2949C3.1554 1.35049 3.25745 1.44221 3.27543 1.38084C3.33642 1.45998 3.41281 1.43808 3.44633 1.44822C3.84635 1.58246 3.84358 1.58828 4.16704 1.72654C4.23697 1.75805 4.28701 1.80395 4.31254 1.81346C4.32743 1.81897 4.31022 1.78725 4.38188 1.81736C4.48784 1.85381 5.01716 2.19982 5.04496 2.23924C5.07748 2.27264 4.82134 2.09878 4.85844 2.14451C5.0475 2.26647 5.22379 2.38498 5.40043 2.52049C5.47283 2.57648 5.42875 2.55778 5.46 2.58201C5.47788 2.59417 5.72741 2.77994 5.71879 2.76854C5.70769 2.72959 4.91094 2.15666 5.13188 2.29197C5.17625 2.31713 5.303 2.44387 5.29985 2.3994C6.00959 2.92859 6.6139 3.53602 7.16606 4.17283C6.82882 3.826 6.46399 3.41569 6.07719 3.07029C6.02507 3.02256 5.84548 2.86193 5.85649 2.89451C6.19087 3.18437 6.58433 3.55802 6.85844 3.8701C6.86725 3.88007 6.82331 3.8555 6.85551 3.89354C6.91658 3.96417 7.13513 4.17242 7.16313 4.21483C7.15559 4.21071 7.0413 4.10924 7.06547 4.15428C7.13091 4.27582 7.20425 4.25334 7.27934 4.34178C7.34066 4.41053 7.69018 4.8876 7.79692 4.99412C7.91202 5.1031 7.53486 4.64265 7.57524 4.666C7.84488 4.96728 8.07604 5.30398 8.29887 5.61033C8.30238 5.61474 8.28002 5.56012 8.3311 5.62791C8.42078 5.74765 8.42355 5.7864 8.46391 5.84959C8.49463 5.89718 8.57984 6.02578 8.63286 6.1074C8.73597 5.89952 8.83588 5.71107 8.91996 5.58006C8.81687 5.75989 8.72684 5.93922 8.64164 6.12205C8.65229 6.13868 8.66221 6.15187 8.66801 6.16209C9.01211 5.45302 9.4038 4.76939 9.84575 4.11522C9.96227 3.95115 9.92215 4.05454 10.1065 3.78123C10.0492 3.84613 9.99309 3.91007 9.93657 3.97654C10.0326 3.83788 10.4981 3.24036 10.5762 3.14647C10.5859 3.1339 10.5805 3.10084 10.7022 2.95506C10.811 2.8262 10.8434 2.81784 10.9063 2.75291C10.9593 2.69839 11.0141 2.63295 11.0303 2.61717C11.0427 2.60533 11.0553 2.6075 11.085 2.57908C11.1802 2.48827 11.0849 2.54408 11.2012 2.47459C11.18 2.49803 11.1587 2.52128 11.1377 2.5449C11.2512 2.43408 11.4166 2.29426 11.2569 2.46385C11.2297 2.49325 11.2466 2.46209 11.2256 2.48338C10.4355 3.34144 11.0693 2.66052 11.3536 2.36424C11.4353 2.29744 11.8734 1.89727 11.8946 1.89061C11.9176 1.87748 11.8477 1.94971 11.9571 1.87401C11.9729 1.84986 12.6197 1.38303 12.3965 1.56346C12.3481 1.5981 12.0389 1.82161 11.9698 1.88182C12.1529 1.76732 12.5435 1.44426 12.5977 1.41697C12.796 1.29747 12.2381 1.67798 12.6797 1.40233C13.0259 1.20167 12.6913 1.37396 12.8204 1.28904C12.8916 1.23688 13.3098 1.05624 13.2901 1.03807C13.4327 0.97259 13.3563 1.02252 13.3731 1.01658C13.39 1.00814 13.677 0.886996 13.7764 0.86424C13.7878 0.861476 13.7562 0.886535 13.7686 0.883771C13.7926 0.875526 14.0749 0.792056 14.0909 0.789045C14.0981 0.786251 14.0261 0.791544 14.0538 0.781232C14.0858 0.766827 14.3686 0.709468 14.3858 0.70506C14.4068 0.692572 14.0559 0.770739 14.1114 0.745099C14.2733 0.707674 14.5377 0.654788 14.6465 0.632795C14.6198 0.638387 14.4593 0.66087 14.4043 0.669904C14.4229 0.644848 14.6976 0.608611 14.6788 0.622052C14.7179 0.610992 14.6844 0.612417 14.7207 0.601545C14.734 0.597952 14.8373 0.589426 14.8584 0.584943C14.8513 0.583948 14.7519 0.583627 14.7725 0.578107C14.8123 0.564192 15.1391 0.554381 15.167 0.559552C15.2427 0.564733 14.9769 0.572389 14.9532 0.583966C14.9615 0.584759 15.1759 0.597692 15.1807 0.600568C15.1935 0.615078 14.9429 0.607394 14.9717 0.622052C15.0336 0.62269 15.096 0.624685 15.1582 0.627912C14.9187 0.635543 14.4815 0.680356 14.375 0.721662C14.7185 0.65116 15.0881 0.647617 15.0879 0.685529C15.0877 0.70069 14.9391 0.715391 14.9454 0.719709C14.969 0.731325 15.172 0.712115 15.1827 0.713849C15.189 0.714763 15.1924 0.715952 15.1924 0.716779C15.1869 0.722848 14.8965 0.735898 14.8829 0.743146C14.859 0.751282 14.9903 0.772602 14.9903 0.779279C14.9845 0.779615 14.7813 0.79952 14.8506 0.805646C14.9197 0.810164 15.0953 0.805063 15.1075 0.806623C15.1414 0.81039 14.8283 0.830361 14.8204 0.837873C14.8268 0.83943 14.9834 0.840797 14.9883 0.844709C14.9825 0.848413 14.8646 0.86273 14.8184 0.877912C14.7826 0.889087 14.8885 0.885825 14.8711 0.888654C14.8587 0.887838 14.5658 0.921629 14.5528 0.927716C14.5326 0.932959 14.6007 0.932601 14.5918 0.936505C14.5783 0.941743 14.4854 0.953296 14.4981 0.95506C14.5126 0.952361 14.8727 0.942184 14.8692 0.95506C14.8605 0.968013 14.4877 0.975086 14.8428 0.998029C14.8451 0.998002 14.9244 0.987522 14.9317 0.987287C14.9846 0.995395 14.7147 1.02845 15.0469 1.00682C14.4321 1.07099 14.9715 1.03252 14.8819 1.06541C14.8476 1.07613 14.6142 1.1089 14.6123 1.11229C14.6368 1.12125 14.711 1.10116 14.7373 1.10447C14.7464 1.10598 14.5449 1.14937 14.5928 1.15135C14.6185 1.15012 14.8392 1.1214 14.8477 1.12303C14.9345 1.12359 14.8305 1.14119 14.8487 1.14549C14.8615 1.14763 14.9944 1.13859 14.9981 1.13963C14.9965 1.14095 14.8263 1.16883 14.7891 1.17967C14.7612 1.1869 14.8674 1.1825 14.8477 1.18651C14.7293 1.20753 14.4759 1.21961 14.7227 1.22361C14.7375 1.2238 14.8265 1.2128 14.8321 1.21287C14.8896 1.21811 14.7209 1.2365 14.6924 1.25096C14.6438 1.2734 14.8818 1.23295 14.6846 1.27049C14.8359 1.26034 14.9166 1.25135 15.0928 1.24119C14.6079 1.2798 14.4495 1.35672 14.9776 1.29588C14.8094 1.30819 14.8304 1.33203 14.7803 1.33787C14.7487 1.33996 14.5048 1.35746 14.6231 1.39061C14.6395 1.39343 14.7803 1.3646 14.7383 1.38377C14.3905 1.43626 14.7316 1.39224 14.7325 1.39549C14.7282 1.40466 13.8936 1.59038 13.7637 1.67772C13.6066 1.74895 13.4823 1.84361 13.4493 1.86131C13.3407 1.91972 13.424 1.85925 13.3975 1.86815C13.367 1.87604 13.0813 2.07639 13.0655 2.08885C13.0105 2.11898 13.0468 2.07902 13.0489 2.0742C12.9694 2.1084 12.59 2.40338 12.4873 2.49217C12.4981 2.495 12.7064 2.32792 12.586 2.44627C12.4498 2.58282 12.412 2.56105 12.4053 2.56151C11.722 3.15825 11.1459 3.89592 10.6475 4.68162C10.6739 4.68223 10.9941 4.16731 11.0079 4.16014C11.0614 4.10427 10.4998 4.95689 10.4366 5.06639C10.4894 4.98799 10.5433 4.90904 10.5987 4.83006C10.5367 4.98612 10.3217 5.2756 10.2198 5.49217C10.1873 5.56077 10.2669 5.43951 10.2676 5.44041C10.2358 5.52257 10.1629 5.63866 10.1973 5.541C10.113 5.73039 10.1101 5.69921 10.0352 5.8408C10.0331 5.84574 10.073 5.79519 10.0215 5.90721C9.99531 5.96222 9.85656 6.24395 9.84672 6.29197C9.84324 6.30996 9.95843 6.1847 9.92875 6.1494C10.1006 5.84847 9.96158 6.04009 10.0225 5.92088C10.0328 5.9026 10.0277 5.95689 10.1768 5.65037C10.1813 5.72806 9.97802 6.05759 9.95317 6.12205C9.90118 6.2497 10.1723 5.75484 10.1963 5.64647C10.2028 5.70344 10.2184 5.61355 10.2803 5.50291C10.3488 5.3813 10.3284 5.43843 10.3643 5.37401C10.464 5.19754 10.4032 5.2591 10.5059 5.12303C10.3683 5.23174 10.6447 4.86938 10.7295 4.76854C10.6187 4.9516 10.5122 5.13704 10.4092 5.32615C10.418 5.31736 10.4268 5.3086 10.4356 5.29979C10.4074 5.34853 10.3804 5.39595 10.3526 5.44529C10.3542 5.43584 10.3561 5.42607 10.3575 5.41697C10.2333 5.6855 10.1837 5.73426 10.1709 5.75682C10.0278 6.02398 9.87173 6.34672 9.74516 6.62889C9.72732 6.67006 9.75605 6.65178 9.60844 6.95311C9.56072 7.05223 9.58401 6.95233 9.54008 7.06444C9.52454 7.22385 9.49172 7.20824 9.47563 7.24803C9.4261 7.37227 9.41196 7.44358 9.40629 7.45897C9.38413 7.51997 9.35047 7.60963 9.32914 7.67283L8.89555 8.94822L8.19145 7.77928C8.1431 7.70085 8.07081 7.58855 8.01957 7.51268C8.0189 7.51282 8.05391 7.59264 7.99614 7.49705C7.97496 7.4616 7.82709 7.12493 7.62309 6.87694C7.66637 6.94464 7.71274 7.01857 7.7559 7.08787C7.70564 6.99952 7.29043 6.46118 7.37407 6.60447C7.42897 6.69473 7.60787 6.87128 7.59184 6.91697C7.47719 6.71757 6.68765 5.74576 6.62407 5.67283C6.61802 5.6632 6.68054 5.71619 6.66996 5.70115C6.66086 5.68756 6.47378 5.47574 6.45121 5.44334C6.43969 5.42546 6.52866 5.51472 6.52543 5.50389C6.51993 5.49104 6.29376 5.22881 6.26371 5.22166C6.32915 5.28257 6.48523 5.46798 6.38969 5.38182C6.37741 5.37055 6.32883 5.29962 6.31352 5.28611C6.17325 5.16098 6.54903 5.57177 6.60356 5.63963C6.35964 5.38532 6.01368 4.97046 5.71586 4.70115C5.61056 4.57766 5.90202 4.85472 5.78032 4.71776C5.53625 4.44671 5.68062 4.64263 5.68461 4.6533C5.6077 4.59722 5.42622 4.3231 5.38481 4.36717C5.2892 4.26948 5.32721 4.29254 5.1768 4.17283C5.19315 4.19229 5.20939 4.21185 5.22563 4.23143C5.04461 4.11569 4.75169 3.7772 4.77739 3.78904C4.86107 3.82861 5.02634 3.99696 5.04204 4.00975C5.06534 4.0283 5.17069 4.03204 5.37895 4.29002C5.50817 4.34782 5.00585 3.92931 5.24907 4.10252C5.09898 3.96537 4.4619 3.45147 4.35063 3.41502C4.33826 3.41102 4.36863 3.47658 4.21391 3.35545C4.13968 3.29786 4.33204 3.41602 4.30082 3.38572C4.25333 3.3389 3.84318 3.0711 3.38969 2.90526C2.93706 2.72834 2.46232 2.70144 2.31743 2.71092C2.29875 2.71133 2.30458 2.69817 2.28715 2.69822H2.28618C2.2139 2.69824 2.02653 2.73878 1.95512 2.75486C2.12382 2.73906 1.80296 2.8213 1.79789 2.84666C1.74835 2.87843 1.74251 2.85695 1.7227 2.87108C1.64866 2.89282 1.66493 3.22977 1.65532 3.43846C1.70334 3.41857 1.69746 3.80092 1.76664 3.99412C1.8103 4.13 1.92724 4.32875 1.87602 4.12791C1.96609 4.38244 2.08491 4.62325 2.20219 4.85838C2.22018 4.89433 2.18039 4.85155 2.21196 4.91307C2.21505 4.91873 2.23406 4.91991 2.26274 4.97361C2.50947 5.4252 2.36644 5.22072 2.40141 5.31151C2.42186 5.36233 2.43814 5.39673 2.45121 5.42283C2.30137 5.15613 2.1471 4.85515 2.10746 4.76951C2.10248 4.85435 2.41168 5.36669 2.48637 5.51463C2.48893 5.52003 2.46112 5.51219 2.46391 5.51756C2.49165 5.57411 2.70817 5.93712 2.68657 5.84959C2.67979 5.82492 2.58079 5.65503 2.4727 5.4619C2.50518 5.51155 2.50404 5.46306 2.50981 5.47069C2.57968 5.57595 2.72616 5.87636 2.77934 5.97069C2.7918 5.99302 2.80333 5.98494 2.80571 5.98826C2.85569 6.07863 2.79765 6.06332 2.89067 6.13279C2.942 6.32119 2.70274 5.835 2.69438 5.88572C2.67903 5.9263 3.32774 6.94164 3.37211 6.92088C3.37077 6.92707 3.37608 6.94428 3.38969 6.97654C3.41871 7.04748 3.60998 7.32634 3.65043 7.37108C3.65769 7.37782 3.69012 7.35239 3.69731 7.36229C3.71726 7.39129 3.92418 7.74909 4.03422 7.86131C3.99071 7.78929 3.94707 7.71723 3.90434 7.64549C4.19427 8.05941 4.16218 7.98809 4.07426 7.84276C4.06953 7.83582 4.06604 7.82792 4.06157 7.82127C3.99372 7.70904 3.90591 7.56734 3.90727 7.56346C3.91539 7.55693 4.41348 8.2462 4.28618 8.13377C4.26537 8.11406 4.05193 7.78446 4.14262 7.95994C4.15847 7.99108 4.31517 8.19584 4.32036 8.20799C4.35452 8.29178 4.00722 7.85287 4.02348 7.92479C4.1244 8.02012 4.21509 8.17157 4.31157 8.29295C4.35534 8.34792 4.38314 8.34966 4.38871 8.35643C4.47006 8.45891 4.40848 8.41325 4.43461 8.44822C4.45009 8.46845 4.63958 8.64731 4.55766 8.64647C5.10435 9.30054 4.7347 8.80773 4.42485 8.38865C4.54079 8.50784 4.72405 8.7751 4.81547 8.88768C4.84811 8.92782 4.84729 8.89073 4.90336 8.95799C5.01773 9.09774 5.52406 9.79846 5.6602 9.97947C5.56795 9.87468 5.57313 9.9213 5.64067 10.0049C5.70795 10.0879 5.67926 9.99871 5.69438 10.0117C5.71175 10.0286 6.00797 10.4278 6.06547 10.4922C5.82079 10.2046 5.85304 10.2855 6.0518 10.539C6.01704 10.507 5.98138 10.4737 5.94731 10.4424C6.07347 10.5852 6.29211 10.9166 6.36821 10.9922C6.38017 11.004 6.35886 10.9452 6.36528 10.9512C6.43093 11.0182 6.62336 11.2881 6.63774 11.2939C6.65051 11.3 6.57681 11.1815 6.61625 11.2158C6.62452 11.223 6.68658 11.3449 6.77446 11.4404C6.80699 11.4757 6.80492 11.4406 6.81352 11.4492C6.88475 11.5202 6.82025 11.496 6.94536 11.6387C7.03715 11.743 7.12966 11.801 7.24028 11.9502C6.87899 11.4513 7.1947 11.8583 7.37407 12.0508C7.40264 12.0812 7.41002 12.0323 7.55668 12.2334C7.16098 11.8696 7.62572 12.3721 7.71391 12.4756C7.71884 12.4817 7.70188 12.5 7.74711 12.5537C7.75095 12.558 7.75903 12.5408 7.8018 12.5888C8.20075 13.0349 7.93617 12.7571 7.99711 12.8535C8.02174 12.893 8.23981 13.1088 8.28813 13.1631C8.29966 13.1762 8.28175 13.1814 8.32621 13.2314C8.40761 13.3229 8.50157 13.4028 8.55473 13.4609C8.56053 13.4674 8.54205 13.4881 8.64555 13.5918C8.67702 13.6237 8.71977 13.6579 8.68168 13.6025C8.57327 13.4404 8.2757 13.1684 8.14457 12.9765C8.02648 12.8044 8.45545 13.2944 8.48832 13.331C8.49549 13.3394 8.39784 13.2493 8.48539 13.3535C8.54213 13.4209 8.64735 13.5003 8.74321 13.5947C8.82782 13.5383 8.92246 13.4751 8.96293 13.4238C9.02799 13.342 8.97334 13.3366 8.97758 13.3281C8.98508 13.3151 9.07403 13.2169 9.09965 13.1767C9.12916 13.1302 9.09811 13.1391 9.14946 13.0674C9.262 12.9066 9.2962 12.938 9.31157 12.9248C9.49647 12.7591 9.37689 12.7967 9.40825 12.751C9.44551 12.7 9.91517 12.1746 9.99418 12.0498C9.9632 12.1027 9.93366 12.1529 9.90141 12.207C9.99279 12.1424 10.0271 12.0245 10.0694 12.0566C10.0175 11.9851 10.2027 11.8477 10.2452 11.792C10.2616 11.7703 10.2495 11.7623 10.2706 11.7353C10.3539 11.6286 10.5401 11.4146 10.5801 11.3525C10.7443 11.0954 10.2222 11.663 10.1758 11.7138C10.2585 11.6146 10.6717 11.0654 10.4414 11.2871C10.4056 11.3218 10.3813 11.4151 10.3653 11.4375C10.2572 11.5882 10.3213 11.4527 10.3096 11.4619C10.2895 11.479 10.2408 11.5917 10.2159 11.6162C10.2081 11.6235 10.2287 11.5495 10.1133 11.6914C10.1519 11.5962 10.476 11.2296 10.5147 11.1689C10.5256 11.1501 10.3878 11.2209 10.7022 10.9248C10.6947 10.9248 10.6872 10.9248 10.6797 10.9248C10.8231 10.7386 10.9716 10.5428 11.1153 10.3525C11.1107 10.3817 11.0522 10.5048 11.1495 10.3691C11.2056 10.2907 11.1372 10.3267 11.1416 10.3193C11.1896 10.2495 12.1309 9.01736 12.2969 8.77244C12.3559 8.68942 12.5 8.44346 12.5118 8.42576C12.5849 8.31947 12.8592 7.9569 12.9073 7.87986C12.9375 7.83181 12.8853 7.86026 12.9151 7.81932C12.9426 7.78174 12.9365 7.83699 12.9454 7.82615C13.0216 7.73665 13.48 6.99037 13.6104 6.83006C13.5376 6.93188 13.231 7.49111 13.253 7.49022C13.2614 7.48385 13.3592 7.37296 13.3682 7.34178C13.4164 7.31182 13.4586 7.11976 13.5235 7.04588C13.5308 7.03752 13.5402 7.09624 13.6416 6.95408C13.6768 6.90475 13.7357 6.75764 13.8497 6.64354C13.9673 6.43963 14.6198 5.44549 14.6133 5.35154C14.6094 5.3531 14.5181 5.48656 14.5577 5.37986C14.6104 5.23569 14.6143 5.39408 14.7051 5.24412C14.7227 5.21744 14.9329 4.80474 14.9375 4.78123C14.9627 4.63222 14.759 4.98659 14.7539 4.9824C14.7494 4.96443 14.8975 4.65919 14.9082 4.64256C14.9174 4.63189 14.8445 4.91331 14.9766 4.59861C14.953 4.62981 14.9284 4.66087 14.9043 4.69236C14.9634 4.54306 15.0063 4.54969 15.0254 4.51658C15.085 4.41254 15.0777 4.28035 15.2286 4.13768C15.268 4.10105 15.2555 4.18589 15.2608 4.18162C15.3113 4.1383 15.2726 4.03726 15.3584 3.98045C15.3641 3.97703 15.3193 4.17494 15.4532 3.85154C15.4393 3.87137 15.4253 3.89206 15.4112 3.91209C15.4189 3.8664 15.542 3.52269 15.5557 3.48436C15.6059 3.36251 15.6078 3.4836 15.6436 3.35838C15.5682 3.42365 15.6763 3.03414 15.711 3.07322C15.6694 3.00957 15.7772 2.70964 15.7813 2.60545C15.7904 2.52281 15.7601 2.4079 15.7598 2.39647C15.7616 2.37991 15.8024 2.37879 15.8067 2.34764C15.8087 2.33309 15.7599 2.27485 15.7959 2.26854C15.8035 2.26674 15.8602 2.2294 15.878 2.22166C15.9093 2.20823 15.8797 2.28265 15.918 2.27537C15.9594 2.25623 15.9083 2.19783 15.9082 2.19822C15.9076 2.1634 15.9508 2.13799 15.9639 2.13084C15.9889 2.10583 15.9455 2.07401 15.9414 2.06932C15.9397 2.05168 15.9926 2.05282 16.0069 2.03807C16.029 2.01832 15.9889 1.93458 16.0079 1.93553C16.0439 1.93988 16.0716 2.01197 16.0743 2.01658C16.1299 2.03564 16.1296 1.94089 16.1202 1.89549C16.1198 1.88283 16.1572 1.89236 16.1534 1.88572C16.0862 1.78211 16.0823 1.94244 16.0264 1.89647C15.9719 1.85799 16.0609 1.86284 16.0684 1.86131C16.0694 1.85731 15.9889 1.81119 15.9756 1.791C15.9841 1.7767 16.2281 1.83248 16.2432 1.81053C16.1748 1.76064 16.1073 1.72868 16.0088 1.69529C16.0239 1.64754 16.1336 1.74057 16.1416 1.74315C16.169 1.74826 16.1201 1.69083 16.128 1.67869C16.1341 1.67031 16.2328 1.68986 16.1661 1.63377C16.1432 1.61548 16.0633 1.60773 15.9649 1.53904C16.3722 1.66524 16.1216 1.52768 16.1104 1.50194C16.1035 1.48005 16.3312 1.53967 16.0713 1.43162C16.0938 1.34109 16.0888 1.40442 16.1709 1.42381C16.2639 1.45234 16.0952 1.31065 16.376 1.51268C16.3971 1.46265 16.127 1.32171 16.1065 1.31932C16.0953 1.31113 16.1671 1.31674 16.1465 1.30076C15.908 1.12609 16.078 1.22806 16.0137 1.15037C16.0125 1.14101 15.7168 1.05285 15.9463 1.09764C16.3413 1.18671 16.452 1.37318 16.584 1.30565C16.3605 1.04659 15.9361 1.03143 15.8418 1.01756C15.6881 0.991256 15.8509 0.993933 15.835 0.98338C15.8272 0.978546 15.6982 0.959187 15.7002 0.95799C15.6616 0.902603 15.8049 0.915383 15.9883 0.972638C16.1599 1.02415 16.3596 1.13497 16.4541 1.18553C16.4131 1.14331 16.3671 1.10267 16.3174 1.06346C16.3937 1.09763 16.4653 1.13659 16.5313 1.17967C16.2138 0.962194 16.5297 1.15221 16.6524 1.15135C16.6803 1.14952 16.4474 1.01697 16.7247 1.16014C16.5465 1.01143 16.617 1.03966 16.42 0.958966C16.4434 0.920515 16.8801 1.14635 17.0108 1.32322C16.7895 1.0321 16.6857 1.02739 16.6329 1.00486C16.5711 0.989675 16.5293 0.95932 16.2705 0.822248C16.1625 0.823807 16.4105 0.912941 16.3907 0.915021C16.2971 0.898274 16.1604 0.800877 15.9278 0.83592C15.8919 0.843062 16.0254 0.913188 15.8135 0.869123C15.7827 0.862682 15.6752 0.8104 15.6739 0.807599C15.694 0.780669 15.8125 0.809813 15.8262 0.800763C15.8279 0.788822 15.6902 0.773865 15.6905 0.771466C15.6921 0.735629 15.8028 0.774317 15.7901 0.761701C15.7679 0.733001 15.2403 0.5776 15.9366 0.708966C15.3501 0.65691 15.8409 0.714225 16.087 0.77049C16.1454 0.783354 16.167 0.767153 16.2491 0.788068C16.3473 0.811296 16.4905 0.889921 16.542 0.915998C16.6002 0.949642 16.2992 0.698357 16.7618 1.01268C16.668 0.907999 16.4811 0.801279 16.2998 0.738263C16.1325 0.677847 15.9494 0.640429 15.8145 0.600568C15.585 0.530982 15.6688 0.520171 15.8243 0.530255C16.0108 0.544021 16.256 0.613036 16.3008 0.627912C16.3255 0.6346 16.2546 0.579409 16.2705 0.58299C16.2848 0.56503 16.8275 0.846988 16.8702 0.881818C16.9327 0.896108 16.6925 0.756027 16.6856 0.729474C16.6891 0.67462 17.3078 1.16985 16.9903 0.874005C16.7746 0.659117 16.2724 0.536708 16.2344 0.458966ZM9.3018 14.4678L9.32914 14.4687C9.32614 14.4598 9.33385 14.4601 9.34086 14.459L9.29789 14.458C9.2994 14.4609 9.29982 14.4645 9.3018 14.4678ZM8.14946 14.4599H8.18266C8.18515 14.4571 8.18784 14.4533 8.19145 14.4492H8.1602C8.15174 14.4575 8.14952 14.4611 8.14946 14.4599ZM9.27836 14.4111C9.28311 14.4209 9.28535 14.4299 9.29106 14.4453L9.35454 14.4463C9.35257 14.45 9.33394 14.4347 9.32719 14.4267C9.32276 14.4212 9.31984 14.4156 9.31743 14.4111H9.27836ZM8.18852 14.4219C8.18244 14.4283 8.17638 14.4329 8.17192 14.4375H8.20219C8.21077 14.4276 8.221 14.4157 8.23246 14.4023H8.2061C8.1988 14.4101 8.19354 14.4168 8.18852 14.4219ZM8.12504 14.4375H8.1436C8.14813 14.4274 8.1546 14.4132 8.16118 14.4013H8.14848C8.13567 14.4179 8.11878 14.4396 8.12504 14.4375ZM11.084 14.084C11.075 14.0719 10.8986 14.2545 10.9024 14.2881C10.9328 14.2526 11.0863 14.0949 11.084 14.084ZM8.11821 13.0801C8.0896 13.0769 8.24217 13.2432 8.24418 13.248C8.24811 13.257 8.22893 13.3175 8.24028 13.334C8.25694 13.3572 8.44308 13.5757 8.57914 13.7383C8.58618 13.7305 8.59252 13.7243 8.59672 13.7197C8.61042 13.7179 8.60422 13.7298 8.58891 13.75C8.59857 13.7615 8.60728 13.7733 8.61625 13.7842C8.62346 13.772 8.62873 13.7605 8.63188 13.749C8.60893 13.7172 8.5942 13.7067 8.58207 13.7031C8.55902 13.723 8.55808 13.7164 8.56743 13.6972C8.5638 13.6968 8.56088 13.6978 8.55864 13.6953C8.52701 13.6579 8.47472 13.5642 8.4102 13.4961C8.47324 13.5568 8.52591 13.605 8.58793 13.664C8.58992 13.6613 8.59262 13.659 8.59477 13.6562C8.46778 13.4961 8.1386 13.0871 8.11821 13.0801ZM8.60649 13.6816C8.61459 13.6894 8.62337 13.6968 8.63188 13.7051C8.62852 13.6979 8.62337 13.6907 8.61625 13.6846V13.6836C8.61447 13.6813 8.61233 13.6792 8.61039 13.6767C8.60903 13.6782 8.60797 13.6801 8.60649 13.6816ZM9.08793 13.001C9.09628 12.9941 9.23665 12.7856 9.21 12.8926L9.18559 12.9316C9.14691 12.9831 9.07381 13.0616 9.04594 13.0879C9.0403 13.0929 9.03358 13.0451 8.97954 13.1133C8.93771 13.1665 9.03052 13.1137 8.94047 13.2109C8.85092 13.3074 8.94516 13.1559 8.93657 13.1631C8.92342 13.1749 8.80631 13.3382 8.79496 13.3183C8.7863 13.3045 8.9316 13.1494 8.96684 13.1025C9.01011 13.0445 8.93376 13.0943 9.01664 13.0049C9.06954 12.9476 9.07588 13.0114 9.08793 13.001ZM9.55766 12.7529C9.52506 12.7802 9.35505 13.0074 9.42582 12.9453C9.48707 12.8919 9.60853 12.7114 9.55766 12.7529ZM9.57231 12.6543C9.55543 12.6723 9.29286 12.9662 9.36528 12.9209C9.39286 12.9026 9.84507 12.369 9.57231 12.6543ZM8.02348 12.8066C7.97074 12.71 8.20487 12.9881 8.10746 12.9062C8.103 12.9023 8.02879 12.8142 8.02348 12.8066ZM7.76274 12.6426C7.78584 12.7016 7.89228 12.8234 7.877 12.7734C7.87569 12.7689 7.79061 12.6516 7.76274 12.6426ZM9.69926 12.75C9.69976 12.7707 9.74111 12.7108 9.77836 12.6758V12.6767C9.82045 12.6373 9.92807 12.5235 9.98051 12.4219C9.88415 12.5347 9.79034 12.6444 9.69926 12.75ZM9.76274 12.2129C9.7424 12.2787 9.60768 12.4134 9.54301 12.4853C9.56471 12.426 9.69889 12.2778 9.76274 12.2129ZM7.55961 12.3652C7.53945 12.3231 7.43739 12.2406 7.4727 12.3105C7.49902 12.346 7.55832 12.3685 7.55961 12.3652ZM10.0997 12.2461C10.2428 12.1555 10.1421 12.1722 10.0391 12.2705C10.0301 12.3188 10.0763 12.2609 10.0997 12.2461ZM7.24418 12.083C7.25311 12.0961 7.41123 12.2951 7.41996 12.2842C7.38564 12.2276 7.16398 11.9594 7.24418 12.083ZM9.99809 12.1269C9.97544 12.1448 9.88518 12.2663 9.89555 12.2744C9.92108 12.2781 10.0345 12.0989 9.99809 12.1269ZM9.87211 11.9785C9.84268 12.029 9.8675 12.0523 9.82133 12.1025C9.67335 12.264 9.76869 12.1223 9.87211 11.9785ZM10.211 12.165C10.3451 12.0654 10.3118 11.9879 10.2334 12.083C10.2029 12.12 10.1919 12.179 10.211 12.165ZM7.12993 11.8652C7.16032 11.933 7.30862 12.0713 7.28129 12.0263C7.25948 11.9921 7.1002 11.7984 7.12993 11.8652ZM10.0811 11.709C10.1426 11.6724 10.0081 11.8224 10.0069 11.8262C10.0064 11.8342 10.1475 11.7942 9.91606 11.9892C9.88231 12.0177 9.9622 11.8848 9.95219 11.8916C9.92692 11.9132 9.90803 11.9315 9.89457 11.9472C9.97682 11.8349 10.068 11.7169 10.0811 11.709ZM10.3897 11.8203C10.4067 11.7708 10.2436 11.9561 10.2364 11.9687C10.192 12.0464 10.3553 11.9177 10.3897 11.8203ZM7.03129 11.7705C6.91943 11.677 7.11248 11.8992 7.17778 11.9756C7.19365 11.9708 7.03946 11.7777 7.03129 11.7705ZM10.1504 11.7441C10.1672 11.7486 10.0206 11.9527 9.98051 11.9404C10.0158 11.9016 10.1387 11.743 10.1504 11.7441ZM10.7217 11.499C10.6974 11.5132 10.548 11.7394 10.5391 11.7471C10.5252 11.7595 10.5541 11.6743 10.4698 11.7881C10.4835 11.7878 10.4533 11.8716 10.4649 11.8633C10.5037 11.8315 10.7877 11.4628 10.7217 11.499ZM10.4991 11.6816C10.5043 11.6715 10.4214 11.7062 10.4024 11.7568C10.3883 11.7953 10.4749 11.7222 10.4991 11.6816ZM6.51567 11.0381C6.58959 11.0881 6.89486 11.4881 6.83207 11.4472C6.7822 11.4154 6.5564 11.1168 6.51567 11.0381ZM10.8252 10.8096C10.8029 10.8032 10.632 11.0528 10.5782 11.1055C10.5744 11.1722 10.7104 10.9452 10.7471 10.9131L10.7373 10.9853C10.7393 11.0049 10.7599 10.9866 10.8409 10.832C10.7214 10.9679 10.8296 10.8162 10.8252 10.8096ZM10.8692 10.7627C10.9609 10.6409 10.8471 10.691 10.8077 10.7803C10.8057 10.7856 10.8625 10.7707 10.8692 10.7627ZM6.13579 10.5185C6.16978 10.5665 6.28136 10.6907 6.26274 10.6924C6.20288 10.6236 6.13769 10.5565 6.13579 10.5185ZM6.00981 10.5801C5.97726 10.5294 5.98222 10.5032 5.96098 10.4844C5.9536 10.4785 5.93743 10.4882 5.91411 10.4668C5.94525 10.5036 5.97796 10.5426 6.00981 10.5801ZM14.5938 9.88865C14.5716 9.96701 14.3354 10.2131 14.3623 10.1582C14.3706 10.1438 14.5976 9.8573 14.5938 9.88865ZM5.51664 9.85545C5.45534 9.75959 5.31561 9.60172 5.36332 9.68944C5.37376 9.70864 5.50374 9.85546 5.51664 9.85545ZM11.6622 9.68748C11.5978 9.74242 11.525 9.8746 11.5684 9.83787C11.5793 9.82788 11.6762 9.69227 11.6622 9.68748ZM3.12309 9.39451C3.20852 9.51259 3.3568 9.59518 3.24418 9.45311C3.23174 9.43793 3.12285 9.37564 3.12309 9.39451ZM5.24028 9.51365C5.207 9.45994 5.07532 9.2967 5.12114 9.37791C5.14094 9.413 5.22131 9.5104 5.24028 9.51365ZM12.6006 8.38377C12.5638 8.4523 12.2947 8.7964 12.3028 8.80955C12.3135 8.82309 12.5994 8.42374 12.6006 8.38377ZM2.32621 8.2324C2.33317 8.24789 2.29353 8.26614 2.29887 8.28319C2.30146 8.29174 2.46411 8.51401 2.48051 8.54588C2.4851 8.55508 2.48801 8.56295 2.49028 8.56834C2.47907 8.5263 2.6135 8.73289 2.59672 8.73533C2.58846 8.73355 2.50254 8.59642 2.49711 8.58592C2.4961 8.58358 2.49495 8.58104 2.49418 8.57908C2.49773 8.61646 2.18614 8.13005 2.23344 8.24901C2.13222 8.11447 2.27634 8.24838 2.19829 8.1494C2.17178 8.1156 2.10609 8.10843 2.00981 7.90428V7.9033C1.98228 7.84464 2.02993 7.89972 2.02836 7.88865C2.02808 7.88492 1.93963 7.69202 2.03422 7.83787C2.17589 8.05463 2.01552 7.87956 2.08793 7.99705C2.09889 8.01436 2.2572 8.21606 2.2559 8.20213C2.25561 8.20041 2.20899 8.13642 2.20414 8.12401C2.18587 8.07753 2.21073 8.089 2.20805 8.08299C2.19722 8.06344 1.95631 7.72631 1.9434 7.65916C1.93959 7.64168 2.31117 8.20486 2.32621 8.2324ZM2.45414 8.33885C2.49718 8.45826 2.60945 8.62576 2.61332 8.56346C2.48737 8.37532 2.60199 8.60706 2.45414 8.33885ZM4.3145 8.17283C4.25646 8.05611 4.51249 8.41973 4.41313 8.31346C4.40818 8.30819 4.3183 8.17996 4.3145 8.17283ZM2.09184 7.68065C2.01166 7.58315 2.14744 7.84268 2.18559 7.87791C2.20343 7.89355 2.12713 7.72401 2.09184 7.68065ZM8.23832 7.70115C8.19254 7.62044 8.18425 7.64245 8.18754 7.6494C8.21819 7.70851 8.28942 7.79289 8.23832 7.70115ZM1.20805 6.42674C1.2149 6.43743 1.29181 6.61477 1.33696 6.69334C1.47242 6.92873 1.46079 6.85757 1.46879 6.87108C1.47783 6.88604 1.549 7.04541 1.5977 7.12791C1.72098 7.33641 1.78298 7.41397 1.93559 7.70213C1.82534 7.551 1.84837 7.65614 1.75102 7.47361C1.76365 7.48603 1.77643 7.49832 1.78911 7.51072C1.63131 7.26856 1.47164 6.94835 1.31157 6.65428C1.26931 6.57667 1.29429 6.6798 1.24516 6.57322C1.20574 6.48744 1.17955 6.3848 1.20805 6.42674ZM3.69926 7.28416C3.7207 7.29463 3.88661 7.51143 3.87797 7.53319C3.8659 7.56435 3.72553 7.3277 3.69926 7.28416ZM7.93071 7.40623C7.57885 6.91236 7.57818 6.82047 7.87504 7.28611C7.87885 7.29221 7.95692 7.43541 7.93071 7.40623ZM13.3682 7.34178C13.3602 7.34678 13.3523 7.34781 13.3438 7.34276C13.3653 7.33005 13.3712 7.33172 13.3682 7.34178ZM6.86039 5.87205C6.89089 5.90747 6.87419 5.86204 6.90727 5.90233C7.01708 6.03666 7.10163 6.16209 7.20024 6.28904C7.20909 6.3004 7.14979 6.2057 7.22465 6.30272C7.23488 6.31599 7.29611 6.42165 7.38481 6.53611C7.62122 6.77156 7.72164 6.99261 7.96977 7.32908C7.96111 7.30677 7.8024 7.05291 7.79008 7.03514C7.59802 6.74205 7.22557 6.24279 6.99516 5.95994C6.93629 5.88691 6.95638 5.92841 6.93071 5.89744C6.91035 5.87296 6.94888 5.88857 6.877 5.81248C6.84269 5.77622 6.9227 5.90674 6.89848 5.88377C6.88263 5.86825 6.8175 5.77659 6.78911 5.75291C6.78301 5.7495 6.83941 5.84763 6.86039 5.87205ZM3.25786 6.72557C3.08725 6.41678 4.02531 7.8501 3.4395 7.04783C3.47273 7.08153 3.50652 7.11565 3.54008 7.1494C3.47667 7.04189 3.38952 6.91519 3.37407 6.91795C3.37441 6.91439 3.3726 6.90799 3.36918 6.89842C3.36535 6.88825 3.28548 6.77781 3.25786 6.72557ZM8.15239 7.24022C8.15083 7.24434 8.15004 7.24876 8.14848 7.25291L8.15825 7.25096C8.15984 7.24684 8.16253 7.24322 8.16411 7.23924L8.15239 7.24022ZM9.25493 7.1367C9.25719 7.14067 9.25956 7.14452 9.26176 7.14842L9.27348 7.14744C9.27106 7.14328 9.2681 7.13892 9.26567 7.13475L9.25493 7.1367ZM7.28715 6.42772C7.27381 6.42936 7.40105 6.58597 7.42289 6.59666C7.39653 6.56051 7.29322 6.42965 7.28715 6.42772ZM9.77348 6.38377C9.78097 6.34606 9.69837 6.51854 9.67973 6.57225C9.68242 6.59263 9.77323 6.38653 9.77348 6.38377ZM9.74125 6.53221C9.74218 6.5464 9.83475 6.35591 9.83012 6.33885C9.80962 6.38332 9.74206 6.51708 9.74125 6.53221ZM7.14946 6.25975C7.24212 6.41191 7.13861 6.2462 7.12504 6.26268C7.19748 6.35559 7.38124 6.60195 7.27153 6.42283C7.24935 6.38693 7.1831 6.30504 7.14946 6.25975ZM13.9942 6.24315C14.0785 6.13862 14.0834 6.26448 14.001 6.34276C13.9905 6.35169 13.8802 6.384 13.9942 6.24315ZM1.17778 6.13279C1.18302 6.14711 1.2686 6.30503 1.27543 6.2949C1.24939 6.2326 1.14226 6.03918 1.17778 6.13279ZM10.4434 5.00682C10.4055 5.0586 10.3094 5.2526 10.2989 5.29881C10.2925 5.30494 10.2788 5.3239 10.2549 5.35838C10.2049 5.40025 9.43988 6.93866 9.97465 5.91404C9.99115 5.88342 9.95811 5.92075 10.0264 5.79295C10.031 5.78441 10.0424 5.78424 10.0567 5.75779C10.0902 5.69353 10.2685 5.37679 10.2989 5.30955C10.3007 5.3099 10.3045 5.30654 10.3106 5.29881C10.3656 5.22779 10.4735 4.96402 10.4434 5.00682ZM8.62211 6.166C8.63044 6.17872 8.63912 6.19128 8.6475 6.20408C8.65351 6.19163 8.66002 6.17942 8.66606 6.16697C8.65589 6.15998 8.64112 6.14958 8.63286 6.14256C8.62924 6.15035 8.62571 6.15819 8.62211 6.166ZM7.00786 6.11131C7.03968 6.14971 7.11201 6.20277 7.0518 6.12303C7.03469 6.11247 6.93726 6.02554 7.00786 6.11131ZM8.61137 6.1494C8.61446 6.14311 8.61805 6.13709 8.62114 6.13084C8.55225 6.04033 8.5496 5.99543 8.54399 5.98533C8.52216 5.95182 8.49076 5.92375 8.46977 5.89256C8.43517 5.84111 8.4228 5.80802 8.37797 5.74315C8.34667 5.698 8.36317 5.75164 8.33305 5.70799C8.32211 5.6916 8.22972 5.49416 8.18559 5.50389C8.19415 5.51496 8.39075 5.81255 8.61137 6.1494ZM6.57329 5.56834C6.61321 5.60343 7.07819 6.194 6.99321 6.0576C6.98194 6.03355 6.57007 5.5195 6.57329 5.56834ZM14.2647 5.84959C14.2754 5.87402 14.1941 5.98857 14.1592 6.03611C14.145 6.02321 14.2377 5.9001 14.2647 5.84959ZM8.22758 5.61424C8.23946 5.63288 8.38508 5.83755 8.39555 5.83494C8.35736 5.77254 8.1618 5.504 8.22758 5.61424ZM6.68364 5.73533C6.70938 5.77848 6.7982 5.85888 6.76176 5.79588C6.72254 5.74588 6.67809 5.72585 6.68364 5.73533ZM6.41801 5.25779C6.40627 5.24051 6.20823 5.04599 6.27446 5.13963C6.32035 5.20439 6.34394 5.20109 6.35649 5.21483C6.3724 5.23128 6.64503 5.5757 6.41801 5.25779ZM10.502 5.04197C10.4989 5.06395 10.3407 5.31975 10.3282 5.32908C10.3841 5.22839 10.4443 5.12984 10.502 5.04197ZM14.7198 5.05467C14.7177 5.06053 14.6635 5.15565 14.6592 5.16111C14.5864 5.23655 14.7537 4.93978 14.7198 5.05467ZM5.9268 4.88768C5.90529 4.88136 6.05122 5.02612 6.07914 5.03611C6.04182 4.99366 5.94551 4.89408 5.9268 4.88768ZM10.5577 4.83104C10.5499 4.84153 10.4492 4.99867 10.4727 4.9824C10.5068 4.95795 10.5917 4.78763 10.5577 4.83104ZM0.487348 4.55955C0.474454 4.56805 0.552847 4.77515 0.552777 4.74608C0.551601 4.73537 0.496562 4.55256 0.487348 4.55955ZM10.7793 4.541C10.7907 4.52783 10.8672 4.51279 10.752 4.65233C10.7315 4.67748 10.7883 4.56397 10.6661 4.7451C10.7538 4.60812 10.7128 4.62125 10.7793 4.541ZM5.47368 4.41014C5.50865 4.44652 5.83299 4.75698 5.73149 4.63475C5.71544 4.61332 5.36277 4.28325 5.47368 4.41014ZM9.94829 3.91014C9.98458 3.88405 9.80235 4.13733 9.79594 4.14647C9.73634 4.21853 9.88894 3.97488 9.94829 3.91014ZM15.295 3.91014C15.3125 3.91545 15.2396 4.08969 15.2315 4.10057C15.1898 4.15366 15.2484 3.96601 15.295 3.91014ZM6.74321 3.68748C6.75978 3.68678 6.8883 3.83823 6.93754 3.88963C6.92109 3.88904 6.79402 3.73742 6.74321 3.68748ZM0.157269 3.54197C0.159375 3.40198 0.246085 4.08462 0.180707 3.77049C0.176186 3.75454 0.156033 3.55462 0.157269 3.54197ZM4.49028 3.65037C4.46172 3.59802 4.61041 3.69568 4.69829 3.77537C4.71833 3.79329 4.78095 3.87397 4.68754 3.81053C4.70927 3.78651 4.57742 3.67393 4.49028 3.65037ZM15.4336 3.48045C15.4073 3.57258 15.3784 3.66816 15.3457 3.76561C15.3376 3.69754 15.4139 3.56382 15.4336 3.48045ZM15.6319 3.51561C15.5919 3.53223 15.5661 3.67929 15.5254 3.76072C15.5739 3.7353 15.6028 3.59489 15.6319 3.51561ZM11.4454 3.7119C11.5404 3.55497 11.5922 3.55766 11.5831 3.57029C11.4743 3.72878 11.5272 3.6203 11.5254 3.61815C11.5148 3.62712 11.437 3.74586 11.4454 3.7119ZM15.5752 3.52049C15.5722 3.52369 15.5093 3.7019 15.5225 3.71092C15.5555 3.6318 15.6184 3.48507 15.5752 3.52049ZM15.7129 3.44139C15.6821 3.45478 15.634 3.61425 15.6114 3.6826C15.653 3.66449 15.6809 3.5153 15.7129 3.44139ZM4.41606 3.52537C4.45717 3.53451 4.55824 3.60929 4.62504 3.65916C4.60363 3.65689 4.46598 3.55674 4.41606 3.52537ZM0.106488 3.1494C0.121597 3.06597 0.114074 3.1909 0.118207 3.33885C0.120527 3.46986 0.135274 3.62483 0.140668 3.64354C0.114175 3.68197 0.0893451 3.20934 0.106488 3.1494ZM1.70707 3.3574C1.71784 3.38376 1.75846 3.59248 1.75493 3.62694C1.73001 3.55129 1.71623 3.43428 1.70707 3.3574ZM4.15727 3.40819C3.83005 3.23998 3.95182 3.19452 4.35063 3.48045C4.33579 3.47534 4.32052 3.47076 4.30571 3.4658C4.76812 3.79153 4.33539 3.48744 4.21489 3.42186C4.16969 3.39622 4.19908 3.43053 4.15825 3.40819H4.15727ZM15.3946 3.35643C15.3903 3.3817 15.3473 3.47962 15.3321 3.52537C15.3165 3.45921 15.4107 3.26517 15.3946 3.35643ZM15.4346 3.47752L15.4336 3.48045C15.4342 3.47856 15.4341 3.47648 15.4346 3.47459V3.47752ZM1.67875 3.17381C1.68762 3.18389 1.69643 3.33211 1.6895 3.3535C1.67696 3.30875 1.67865 3.22545 1.67875 3.17381ZM15.7305 3.11815C15.6958 3.15483 15.6632 3.3699 15.6827 3.33885C15.6913 3.32522 15.7513 3.09649 15.7305 3.11815ZM11.7432 3.23924C11.7623 3.22381 11.7188 3.28721 11.6914 3.31639C11.6426 3.36826 11.6813 3.28964 11.7432 3.23924ZM3.74809 3.16307C3.76768 3.17007 3.89624 3.24949 3.94633 3.27537C3.86807 3.25403 3.62327 3.11594 3.74809 3.16307ZM10.7969 2.94725C10.7853 2.95798 10.5881 3.18561 10.5909 3.19627C10.6198 3.16218 10.9093 2.82891 10.7969 2.94725ZM10.8848 2.9824C10.8394 3.03615 10.7082 3.17932 10.709 3.19432C10.7524 3.13859 10.8838 2.9977 10.8848 2.9824ZM10.8809 2.81151C10.8784 2.81544 10.9333 2.77508 10.8389 2.87889C10.8312 2.88783 10.8025 2.89294 10.6914 3.03319C10.6689 3.0618 10.6416 3.11269 10.6446 3.11033C10.7811 2.9821 11.1227 2.5317 10.8809 2.81151ZM3.41508 3.01854C3.51023 3.05667 3.39606 3.04057 3.34965 3.01268C3.33239 3.00215 3.3908 3.00901 3.41508 3.01854ZM12.1983 2.88865C12.2928 2.81282 11.992 3.10883 12.0811 3.00389C12.0857 2.99797 12.1933 2.89219 12.1983 2.88865ZM2.91606 2.86326C2.61375 2.73518 3.20975 2.89825 3.38676 2.97361C3.20936 2.93422 2.99318 2.86587 3.28129 2.98631C2.849 2.85538 3.03292 2.89374 3.01762 2.88377C2.99773 2.87599 2.92871 2.86865 2.91606 2.86326ZM5.76176 2.70311C5.82584 2.7328 5.96856 2.86537 6.06059 2.94822C6.00924 2.9218 5.8438 2.77043 5.76176 2.70311ZM3.20024 2.87303C3.24126 2.88066 3.32719 2.9268 3.29301 2.92479C3.24849 2.92165 3.19067 2.87179 3.20024 2.87303ZM12.7217 2.44041C12.7172 2.44324 12.7135 2.44594 12.711 2.44725C12.678 2.47987 12.2799 2.81518 12.2588 2.83787C12.1328 2.92955 12.6634 2.4599 12.6885 2.45506C12.6977 2.44949 12.7042 2.44591 12.7081 2.44432C12.7254 2.42401 12.8294 2.3437 12.8497 2.34373C12.8173 2.36627 12.7341 2.43201 12.7217 2.44041ZM2.58696 2.76951C2.48698 2.73428 2.90479 2.76092 2.99223 2.80565C2.9784 2.81105 2.59994 2.76655 2.58696 2.76951ZM5.68657 2.77733C5.70671 2.76827 5.43686 2.56766 5.53129 2.66209C5.55528 2.6854 5.68048 2.77997 5.68657 2.77733ZM12.3623 2.61619C12.3355 2.65816 12.3126 2.67942 12.212 2.76951C12.356 2.63033 12.2117 2.74702 12.3623 2.61619ZM11.8565 1.9326C11.8138 1.94964 11.1857 2.54669 11.1153 2.64451C11.1931 2.55656 11.819 1.97099 11.8545 1.95115C11.862 1.94312 11.8607 1.92996 11.8565 1.9326ZM16.0196 2.36033C16.0068 2.33624 15.9781 2.43146 16.002 2.44822C16.0184 2.45592 16.0288 2.37518 16.0196 2.36033ZM11.6309 2.31444C11.567 2.35392 11.5318 2.43719 11.6182 2.35643C11.644 2.33241 11.6378 2.31038 11.6309 2.31444ZM11.5635 2.07029C11.512 2.13181 11.3475 2.28022 11.2588 2.37205C11.2367 2.36964 11.4951 2.13262 11.5635 2.07029ZM17.9414 1.59764C17.862 1.32531 17.4353 0.378807 17.9502 1.33885H17.9493C18.0439 1.59826 17.958 1.44735 17.9629 1.45994C18.092 1.9918 18.0804 1.83322 18.1104 1.91502C18.1488 2.07976 18.086 2.08195 18.125 2.33104C18.0577 1.8986 18.102 2.30067 18.0762 2.3076C17.9914 2.38022 18.0792 1.7065 17.9366 1.45115C17.9242 1.41883 17.9781 1.68126 17.9414 1.59764ZM18.1387 1.92479C18.1689 1.84756 18.2099 2.26055 18.1973 2.29588C18.1972 2.31794 18.1103 2.02346 18.1387 1.92479ZM5.0352 2.14451C5.04711 2.1512 5.19005 2.25054 5.19536 2.25584C5.30664 2.35287 4.89058 2.06457 5.0352 2.14451ZM13.2832 2.03611C13.2901 2.03466 13.1259 2.16221 13.0469 2.21092C12.8959 2.29936 13.2677 2.03797 13.2832 2.03611ZM12.2647 1.83494C12.2059 1.87536 12.0368 2.00395 12.0147 2.03514C12.0738 1.98294 12.2459 1.85999 12.2647 1.83494ZM12.9346 1.26756C12.7964 1.344 12.6623 1.42668 12.5313 1.51365C12.6785 1.45885 12.4055 1.62264 12.3018 1.66502C12.2697 1.69669 12.2382 1.72959 12.2071 1.7617C12.1224 1.77154 12.1413 1.8418 12.0069 1.9033C11.8883 2.06076 12.4251 1.57948 12.5293 1.57518C11.8844 2.01345 12.9812 1.3234 12.4922 1.57322C12.884 1.34853 12.6137 1.48573 12.667 1.44139C12.7253 1.39299 12.953 1.27423 12.9346 1.26756ZM4.16996 1.69334C4.15681 1.65918 4.44372 1.82004 4.54008 1.87303C4.55179 1.90483 4.27503 1.7364 4.16996 1.69334ZM12.8233 1.25486C12.723 1.33466 12.6266 1.37403 12.4844 1.46776C12.4467 1.49292 12.4612 1.49338 12.4571 1.49608C12.3921 1.53991 12.435 1.49922 12.3946 1.52635C12.3599 1.5412 11.8661 1.93258 11.9288 1.86815C11.9633 1.80847 12.6896 1.31055 12.8233 1.25486ZM3.97368 1.72654C4.03965 1.76939 4.15212 1.787 4.09379 1.74705C4.02913 1.71545 3.96674 1.72205 3.97368 1.72654ZM13.7579 1.70604C13.749 1.6902 14.0587 1.57764 14.1358 1.55369C14.0569 1.58957 13.8735 1.65691 13.7579 1.70604ZM16.3643 1.42576C16.4064 1.48222 16.4471 1.54585 16.4756 1.60838C16.5516 1.60569 16.4662 1.54618 16.4454 1.51658C16.427 1.48881 16.4307 1.44923 16.3643 1.42576ZM3.59282 1.45701C3.61523 1.45185 3.82709 1.53113 3.89848 1.55858C3.84622 1.55362 3.69727 1.49229 3.59282 1.45701ZM3.49125 1.54881C3.32926 1.47649 3.3281 1.52004 3.45121 1.55565C3.49316 1.56827 3.49578 1.55192 3.49125 1.54881ZM12.9668 1.30955C12.9512 1.31427 12.6637 1.48891 12.6846 1.48631C12.7225 1.46186 13.1414 1.22494 12.9668 1.30955ZM2.2686 1.35252C2.14103 1.35204 1.95861 1.36493 1.92289 1.37986C2.00226 1.36834 2.16822 1.36532 2.2686 1.36424C2.3171 1.36323 2.34725 1.36102 2.33696 1.35252C2.31889 1.35277 2.29518 1.35234 2.2686 1.35252ZM17.5069 1.01561C17.3992 0.836276 17.6918 1.22301 17.7276 1.35838C17.7178 1.355 17.524 1.02603 17.5069 1.01561ZM2.26664 1.21873C2.84956 1.22248 3.06919 1.30948 3.04594 1.30467C3.01942 1.31003 2.74724 1.24453 2.26664 1.23729C2.16118 1.2367 2.04957 1.23996 1.93266 1.24998C1.92899 1.23461 1.92489 1.23858 2.02836 1.22947C2.11158 1.22266 2.1913 1.21952 2.26664 1.21873ZM15.1836 1.28514C15.2191 1.2922 15.0672 1.30185 15.0127 1.30174C14.8905 1.29899 15.1707 1.28041 15.1836 1.28514ZM13.2735 1.09666C13.2433 1.10598 12.9917 1.22906 12.9766 1.25096C13.0984 1.19871 13.3386 1.0718 13.2735 1.09666ZM14.2735 0.83299C14.061 0.867789 13.7225 0.959567 13.5245 1.03611C13.4676 1.05722 13.4157 1.08657 13.3682 1.10643C13.2926 1.13822 13.3547 1.09881 13.3497 1.10057L13.2754 1.13475C13.2104 1.16933 13.1856 1.197 13.3428 1.12694C13.2704 1.16325 13.1991 1.20073 13.1289 1.24022C13.404 1.12107 13.3734 1.10482 13.4532 1.07127C13.5663 1.02712 13.5681 1.05744 13.5489 1.0742C13.6326 1.01853 14.0332 0.881401 14.2735 0.83299ZM15.8916 1.05565C16.0115 1.06144 16.2111 1.14923 16.3155 1.19236C16.3258 1.19709 16.3092 1.0886 16.417 1.21385C16.4867 1.2824 15.9883 1.09336 15.8916 1.05565ZM13.8418 1.00194C13.4812 1.13546 13.6107 1.07008 13.543 1.08592C13.4019 1.12521 13.4704 1.15789 13.4883 1.1533C13.5597 1.13107 13.7925 1.0217 13.8418 1.00194ZM18.0186 0.83006C18.0314 0.842389 18.1615 1.07904 18.1612 1.08885C18.2523 1.31323 17.8546 0.602263 18.0186 0.83006ZM14.4903 0.726545C14.2593 0.746904 14.0086 0.842514 13.9795 0.851545C13.9446 0.860303 13.9955 0.831111 13.9873 0.83299C13.9662 0.833784 13.5968 0.955204 13.5801 0.966779C13.5679 0.972306 13.6414 0.968273 13.5694 1.00291C13.7058 0.920702 14.4 0.752062 14.4385 0.756818C14.4668 0.751097 14.249 0.760798 14.587 0.722638L14.4903 0.726545ZM13.8702 0.822248C13.6949 0.864707 13.3361 1.02737 13.4766 0.943341C13.5479 0.901099 13.6046 0.897868 13.6143 0.894513C13.7097 0.860609 13.9106 0.796668 13.8702 0.822248ZM13.8897 0.873029C13.9853 0.853284 13.7263 0.933672 13.6631 0.95506C13.5232 0.996428 13.8713 0.874061 13.8897 0.873029ZM14.1202 0.721662C14.2848 0.688563 13.5571 0.8897 13.5176 0.917951C13.56 0.884743 14.0955 0.71702 14.1202 0.721662ZM13.6182 0.849591C13.6462 0.844334 13.6006 0.872306 13.5225 0.902326C13.4918 0.907062 13.5524 0.862352 13.6182 0.849591ZM14.378 0.791974C14.2556 0.813425 14.0682 0.853254 14.0069 0.883771C14.1253 0.850114 14.3135 0.815463 14.378 0.791974ZM14.127 0.707013C14.102 0.705773 13.5694 0.876779 13.6661 0.831037C13.7297 0.788049 14.2649 0.66138 14.127 0.707013ZM16.1446 0.743146C16.0423 0.69503 16.2816 0.75485 16.3487 0.796857C16.343 0.80974 16.163 0.749031 16.1446 0.743146ZM15.6573 0.615216C15.7881 0.655987 15.4495 0.64182 15.4092 0.606427C15.4068 0.598041 15.6322 0.605714 15.6573 0.615216ZM15.6416 0.537091C15.7458 0.56592 15.5101 0.550088 15.4356 0.538068C15.4319 0.520845 15.6253 0.5316 15.6416 0.537091ZM15.3331 0.251935C15.6868 0.319515 15.3837 0.294177 16.1514 0.377912C15.8187 0.350553 16.1245 0.407548 16.0586 0.413068C16.0062 0.415811 15.8171 0.367835 15.9219 0.42088C15.7881 0.346734 15.2323 0.320858 15.1944 0.322248H15.1954C15.1794 0.31832 15.2215 0.236787 15.3331 0.251935ZM15.6104 0.257795C15.6179 0.246025 15.7414 0.255404 15.8721 0.279279C16.027 0.30593 16.1823 0.353048 16.2286 0.36717C16.1988 0.369946 16.035 0.332764 15.8721 0.308576C15.7336 0.287051 15.6044 0.271553 15.6104 0.257795Z" fill="#FF3C3C"/>
</svg>
